<svg width="610" height="98" viewBox="0 0 610 98" fill="none" xmlns="http://www.w3.org/2000/svg">
<path d="M120.922 14.556C122.203 13.8027 124.124 13.087 126.685 12.409C129.322 11.731 131.958 11.392 134.595 11.392C138.362 11.392 141.676 11.957 144.539 13.087C147.477 14.1417 149.36 15.8367 150.189 18.172C151.545 22.0893 153.014 26.647 154.596 31.845C156.178 37.043 157.76 42.4293 159.342 48.004C160.924 53.5033 162.468 58.965 163.975 64.389C165.482 69.7377 166.8 74.4837 167.93 78.627C167.026 79.6817 165.67 80.5103 163.862 81.113C162.054 81.791 159.907 82.13 157.421 82.13C155.613 82.13 154.069 81.9793 152.788 81.678C151.583 81.3767 150.566 80.9247 149.737 80.322C148.984 79.7193 148.343 78.9283 147.816 77.949C147.364 76.9697 146.95 75.8397 146.573 74.559L144.539 66.762H124.086C123.483 69.022 122.881 71.3573 122.278 73.768C121.675 76.1787 121.073 78.514 120.47 80.774C119.415 81.1507 118.285 81.452 117.08 81.678C115.95 81.9793 114.556 82.13 112.899 82.13C109.057 82.13 106.194 81.4897 104.311 80.209C102.503 78.853 101.599 77.0073 101.599 74.672C101.599 73.6173 101.75 72.5627 102.051 71.508C102.352 70.4533 102.691 69.2103 103.068 67.779C103.595 65.745 104.311 63.2213 105.215 60.208C106.194 57.1947 107.249 53.9553 108.379 50.49C109.509 46.9493 110.714 43.3333 111.995 39.642C113.276 35.9507 114.481 32.4853 115.611 29.246C116.741 25.9313 117.758 22.9933 118.662 20.432C119.641 17.8707 120.395 15.912 120.922 14.556ZM134.482 29.133C133.427 32.297 132.222 35.8377 130.866 39.755C129.585 43.597 128.418 47.5143 127.363 51.507H141.375C140.32 47.439 139.228 43.484 138.098 39.642C137.043 35.7247 136.064 32.2217 135.16 29.133H134.482ZM222.052 64.615C222.052 70.3403 219.905 74.8227 215.611 78.062C211.317 81.3013 204.989 82.921 196.627 82.921C193.463 82.921 190.525 82.695 187.813 82.243C185.101 81.791 182.765 81.113 180.807 80.209C178.923 79.2297 177.417 78.0243 176.287 76.593C175.232 75.1617 174.705 73.4667 174.705 71.508C174.705 69.7 175.081 68.1933 175.835 66.988C176.588 65.7073 177.492 64.6527 178.547 63.824C180.731 65.0293 183.217 66.1217 186.005 67.101C188.867 68.005 192.144 68.457 195.836 68.457C198.171 68.457 199.941 68.118 201.147 67.44C202.427 66.762 203.068 65.858 203.068 64.728C203.068 63.6733 202.616 62.8447 201.712 62.242C200.808 61.6393 199.301 61.1497 197.192 60.773L193.802 60.095C187.248 58.8143 182.351 56.818 179.112 54.106C175.948 51.3187 174.366 47.3637 174.366 42.241C174.366 39.4537 174.968 36.93 176.174 34.67C177.379 32.41 179.074 30.5267 181.259 29.02C183.443 27.5133 186.042 26.3457 189.056 25.517C192.144 24.6883 195.534 24.274 199.226 24.274C202.013 24.274 204.612 24.5 207.023 24.952C209.509 25.3287 211.656 25.9313 213.464 26.76C215.272 27.5887 216.703 28.681 217.758 30.037C218.812 31.3177 219.34 32.862 219.34 34.67C219.34 36.4027 219.001 37.9093 218.323 39.19C217.72 40.3953 216.929 41.4123 215.95 42.241C215.347 41.8643 214.443 41.4877 213.238 41.111C212.032 40.659 210.714 40.2823 209.283 39.981C207.851 39.6043 206.382 39.303 204.876 39.077C203.444 38.851 202.126 38.738 200.921 38.738C198.435 38.738 196.514 39.0393 195.158 39.642C193.802 40.1693 193.124 41.0357 193.124 42.241C193.124 43.0697 193.5 43.7477 194.254 44.275C195.007 44.8023 196.438 45.292 198.548 45.744L202.051 46.535C209.283 48.1923 214.405 50.49 217.419 53.428C220.507 56.2907 222.052 60.0197 222.052 64.615ZM250.549 62.129C250.549 64.0877 251.152 65.4813 252.357 66.31C253.638 67.1387 255.408 67.553 257.668 67.553C258.798 67.553 259.966 67.4777 261.171 67.327C262.376 67.101 263.431 66.8373 264.335 66.536C265.013 67.3647 265.578 68.3063 266.03 69.361C266.557 70.3403 266.821 71.5457 266.821 72.977C266.821 75.8397 265.729 78.175 263.544 79.983C261.435 81.791 257.668 82.695 252.244 82.695C245.615 82.695 240.492 81.1883 236.876 78.175C233.335 75.1617 231.565 70.265 231.565 63.485V15.121C232.394 14.895 233.561 14.669 235.068 14.443C236.65 14.1417 238.307 13.991 240.04 13.991C243.355 13.991 245.916 14.5937 247.724 15.799C249.607 16.929 250.549 19.3773 250.549 23.144V30.376H265.352C265.804 31.2047 266.218 32.2593 266.595 33.54C267.047 34.7453 267.273 36.1013 267.273 37.608C267.273 40.2447 266.67 42.1657 265.465 43.371C264.335 44.501 262.791 45.066 260.832 45.066H250.549V62.129ZM295.793 80.887C295.04 81.113 293.834 81.339 292.177 81.565C290.595 81.791 288.938 81.904 287.205 81.904C285.548 81.904 284.041 81.791 282.685 81.565C281.404 81.339 280.312 80.887 279.408 80.209C278.504 79.531 277.788 78.627 277.261 77.497C276.809 76.2917 276.583 74.7473 276.583 72.864V38.964C276.583 37.2313 276.884 35.7623 277.487 34.557C278.165 33.2763 279.107 32.1463 280.312 31.167C281.517 30.1877 282.986 29.3213 284.719 28.568C286.527 27.7393 288.448 27.0237 290.482 26.421C292.516 25.8183 294.625 25.3663 296.81 25.065C298.995 24.6883 301.179 24.5 303.364 24.5C306.98 24.5 309.843 25.2157 311.952 26.647C314.061 28.003 315.116 30.263 315.116 33.427C315.116 34.4817 314.965 35.5363 314.664 36.591C314.363 37.5703 313.986 38.4743 313.534 39.303C311.952 39.303 310.332 39.3783 308.675 39.529C307.018 39.6797 305.398 39.9057 303.816 40.207C302.234 40.5083 300.727 40.8473 299.296 41.224C297.94 41.5253 296.772 41.902 295.793 42.354V80.887ZM377.783 53.541C377.783 58.2117 377.068 62.3927 375.636 66.084C374.205 69.7 372.171 72.751 369.534 75.237C366.973 77.723 363.884 79.6063 360.268 80.887C356.652 82.1677 352.622 82.808 348.177 82.808C343.733 82.808 339.702 82.13 336.086 80.774C332.47 79.418 329.344 77.497 326.707 75.011C324.146 72.4497 322.15 69.361 320.718 65.745C319.287 62.129 318.571 58.061 318.571 53.541C318.571 49.0963 319.287 45.066 320.718 41.45C322.15 37.834 324.146 34.783 326.707 32.297C329.344 29.7357 332.47 27.777 336.086 26.421C339.702 25.065 343.733 24.387 348.177 24.387C352.622 24.387 356.652 25.1027 360.268 26.534C363.884 27.89 366.973 29.8487 369.534 32.41C372.171 34.896 374.205 37.947 375.636 41.563C377.068 45.179 377.783 49.1717 377.783 53.541ZM338.233 53.541C338.233 58.1363 339.1 61.677 340.832 64.163C342.64 66.5737 345.126 67.779 348.29 67.779C351.454 67.779 353.865 66.536 355.522 64.05C357.255 61.564 358.121 58.061 358.121 53.541C358.121 49.021 357.255 45.5557 355.522 43.145C353.79 40.659 351.341 39.416 348.177 39.416C345.013 39.416 342.565 40.659 340.832 43.145C339.1 45.5557 338.233 49.021 338.233 53.541ZM406.704 80.887C405.876 81.0377 404.633 81.226 402.975 81.452C401.393 81.7533 399.774 81.904 398.116 81.904C396.459 81.904 394.952 81.791 393.596 81.565C392.316 81.339 391.223 80.887 390.319 80.209C389.415 79.531 388.7 78.627 388.172 77.497C387.72 76.2917 387.494 74.7473 387.494 72.864V7.324C388.323 7.17333 389.528 6.985 391.11 6.759C392.768 6.45767 394.425 6.307 396.082 6.307C397.74 6.307 399.209 6.42 400.489 6.64599C401.845 6.872 402.975 7.324 403.879 8.002C404.783 8.68 405.461 9.62166 405.913 10.827C406.441 11.957 406.704 13.4637 406.704 15.347V80.887ZM475.665 53.541C475.665 58.2117 474.95 62.3927 473.518 66.084C472.087 69.7 470.053 72.751 467.416 75.237C464.855 77.723 461.766 79.6063 458.15 80.887C454.534 82.1677 450.504 82.808 446.059 82.808C441.615 82.808 437.584 82.13 433.968 80.774C430.352 79.418 427.226 77.497 424.589 75.011C422.028 72.4497 420.032 69.361 418.6 65.745C417.169 62.129 416.453 58.061 416.453 53.541C416.453 49.0963 417.169 45.066 418.6 41.45C420.032 37.834 422.028 34.783 424.589 32.297C427.226 29.7357 430.352 27.777 433.968 26.421C437.584 25.065 441.615 24.387 446.059 24.387C450.504 24.387 454.534 25.1027 458.15 26.534C461.766 27.89 464.855 29.8487 467.416 32.41C470.053 34.896 472.087 37.947 473.518 41.563C474.95 45.179 475.665 49.1717 475.665 53.541ZM436.115 53.541C436.115 58.1363 436.982 61.677 438.714 64.163C440.522 66.5737 443.008 67.779 446.172 67.779C449.336 67.779 451.747 66.536 453.404 64.05C455.137 61.564 456.003 58.061 456.003 53.541C456.003 49.021 455.137 45.5557 453.404 43.145C451.672 40.659 449.223 39.416 446.059 39.416C442.895 39.416 440.447 40.659 438.714 43.145C436.982 45.5557 436.115 49.021 436.115 53.541ZM520.328 79.531C519.273 80.3597 517.729 81.0377 515.695 81.565C513.661 82.0923 511.363 82.356 508.802 82.356C505.864 82.356 503.302 81.9793 501.118 81.226C499.008 80.4727 497.539 79.2673 496.711 77.61C496.033 76.3293 495.204 74.559 494.225 72.299C493.321 69.9637 492.341 67.4023 491.287 64.615C490.232 61.7523 489.14 58.7013 488.01 55.462C486.88 52.2227 485.787 49.021 484.733 45.857C483.753 42.693 482.849 39.642 482.021 36.704C481.192 33.766 480.514 31.167 479.987 28.907C481.041 27.8523 482.435 26.9483 484.168 26.195C485.976 25.3663 487.934 24.952 490.044 24.952C492.68 24.952 494.827 25.517 496.485 26.647C498.217 27.7017 499.498 29.7357 500.327 32.749L504.734 50.038C505.562 53.428 506.353 56.5167 507.107 59.304C507.86 62.016 508.425 64.1253 508.802 65.632H509.367C510.798 60.0573 512.305 53.88 513.887 47.1C515.469 40.32 516.9 33.653 518.181 27.099C519.461 26.421 520.893 25.8937 522.475 25.517C524.132 25.1403 525.714 24.952 527.221 24.952C529.857 24.952 532.08 25.517 533.888 26.647C535.696 27.777 536.6 29.7357 536.6 32.523C536.6 33.7283 536.298 35.4987 535.696 37.834C535.168 40.094 534.453 42.693 533.549 45.631C532.72 48.4937 531.703 51.5447 530.498 54.784C529.368 58.0233 528.2 61.1873 526.995 64.276C525.789 67.3647 524.584 70.265 523.379 72.977C522.249 75.6137 521.232 77.7983 520.328 79.531ZM573.668 82.808C569.223 82.808 565.08 82.2053 561.238 81C557.471 79.7193 554.157 77.836 551.294 75.35C548.507 72.864 546.284 69.7377 544.627 65.971C543.045 62.2043 542.254 57.7973 542.254 52.75C542.254 47.778 543.045 43.5217 544.627 39.981C546.284 36.365 548.431 33.427 551.068 31.167C553.705 28.8317 556.718 27.1367 560.108 26.082C563.498 24.952 566.963 24.387 570.504 24.387C574.497 24.387 578.113 24.9897 581.352 26.195C584.667 27.4003 587.492 29.0577 589.827 31.167C592.238 33.2763 594.083 35.8 595.364 38.738C596.72 41.676 597.398 44.8777 597.398 48.343C597.398 50.9043 596.682 52.863 595.251 54.219C593.82 55.575 591.823 56.4413 589.262 56.818L561.351 60.999C562.18 63.485 563.875 65.3683 566.436 66.649C568.997 67.8543 571.935 68.457 575.25 68.457C578.339 68.457 581.239 68.0803 583.951 67.327C586.738 66.4983 588.998 65.5567 590.731 64.502C591.936 65.2553 592.953 66.31 593.782 67.666C594.611 69.022 595.025 70.4533 595.025 71.96C595.025 75.35 593.443 77.8737 590.279 79.531C587.868 80.8117 585.156 81.678 582.143 82.13C579.13 82.582 576.305 82.808 573.668 82.808ZM570.504 38.399C568.696 38.399 567.114 38.7003 565.758 39.303C564.477 39.9057 563.423 40.6967 562.594 41.676C561.765 42.58 561.125 43.6347 560.673 44.84C560.296 45.97 560.07 47.1377 559.995 48.343L579.318 45.179C579.092 43.6723 578.263 42.1657 576.832 40.659C575.401 39.1523 573.291 38.399 570.504 38.399Z" fill="white"/>
<path d="M62.2588 6C63.9157 6 65.2588 4.65686 65.2588 3C65.2588 1.34315 63.9157 0 62.2588 0C60.602 0 59.2588 1.34315 59.2588 3C59.2588 4.65686 60.602 6 62.2588 6Z" fill="white"/>
<path d="M34.2588 93.0001C35.9157 93.0001 37.2588 91.6569 37.2588 90.0001C37.2588 88.3432 35.9157 87.0001 34.2588 87.0001C32.602 87.0001 31.2588 88.3432 31.2588 90.0001C31.2588 91.6569 32.602 93.0001 34.2588 93.0001Z" fill="white"/>
<path d="M19.7588 86.0001C20.5872 86.0001 21.2588 85.3285 21.2588 84.5001C21.2588 83.6716 20.5872 83.0001 19.7588 83.0001C18.9304 83.0001 18.2588 83.6716 18.2588 84.5001C18.2588 85.3285 18.9304 86.0001 19.7588 86.0001Z" fill="white"/>
<path d="M25.7588 93.0001C26.5872 93.0001 27.2588 92.3285 27.2588 91.5001C27.2588 90.6716 26.5872 90.0001 25.7588 90.0001C24.9304 90.0001 24.2588 90.6716 24.2588 91.5001C24.2588 92.3285 24.9304 93.0001 25.7588 93.0001Z" fill="white"/>
<path d="M71.7588 4C72.5872 4 73.2588 3.32843 73.2588 2.5C73.2588 1.67158 72.5872 1 71.7588 1C70.9304 1 70.2588 1.67158 70.2588 2.5C70.2588 3.32843 70.9304 4 71.7588 4Z" fill="white"/>
<path d="M78.7588 17C79.5872 17 80.2588 16.3284 80.2588 15.5C80.2588 14.6715 79.5872 14 78.7588 14C77.9304 14 77.2588 14.6715 77.2588 15.5C77.2588 16.3284 77.9304 17 78.7588 17Z" fill="white"/>
<path d="M51.7588 85.0001C52.5872 85.0001 53.2588 84.3285 53.2588 83.5001C53.2588 82.6716 52.5872 82.0001 51.7588 82.0001C50.9304 82.0001 50.2588 82.6716 50.2588 83.5001C50.2588 84.3285 50.9304 85.0001 51.7588 85.0001Z" fill="white"/>
<path d="M42.7588 9C43.5872 9 44.2588 8.32843 44.2588 7.5C44.2588 6.67158 43.5872 6 42.7588 6C41.9304 6 41.2588 6.67158 41.2588 7.5C41.2588 8.32843 41.9304 9 42.7588 9Z" fill="white"/>
<path d="M55.0889 39.08C53.4989 37.48 50.7389 37.65 48.8389 38.86C47.2589 39.86 46.0289 42.39 45.1589 44.29C44.3289 42.39 43.0589 39.86 41.4789 38.86C39.5789 37.65 36.8189 37.48 35.2289 39.08C33.9889 40.33 33.7689 42.28 33.9789 44.03C34.3489 47.19 36.4289 50.18 38.5189 52.58C40.7089 55.1 45.1489 58.62 45.1589 58.62C45.1689 58.62 49.6089 55.1 51.7989 52.58C53.8789 50.18 55.9689 47.18 56.3389 44.03C56.5389 42.28 56.3389 40.33 55.0889 39.08Z" stroke="white" stroke-width="5" stroke-linecap="round" stroke-linejoin="round"/>
<path d="M81.3687 7.83002C98.9587 23.9501 83.5087 55.4201 67.1487 67.4101C54.0587 77.0001 32.0787 82.1001 20.6787 73.7401C11.5687 67.0501 14.5987 49.3301 23.3187 39.7101C34.4987 27.3801 58.3187 20.5901 65.4087 30.5201C67.8687 33.9701 67.2087 44.0001 56.3587 48.2701" stroke="white" stroke-width="5" stroke-linecap="round" stroke-linejoin="round"/>
<path d="M12.1288 82.45C-2.15121 72.05 1.58879 46.71 14.6088 31.15C27.6288 15.59 54.5688 5.48001 70.6788 17.2C79.7188 23.78 80.0388 40.05 67.3788 55.18C56.6888 67.94 36.1888 70.09 29.2388 65.03C23.8188 61.08 27.5988 50.56 34.0088 48.59" stroke="white" stroke-width="5" stroke-linecap="round" stroke-linejoin="round"/>
</svg>
