<svg width="264" height="198" viewBox="0 0 264 198" fill="none" xmlns="http://www.w3.org/2000/svg">
<path d="M4.77097 138.563V103.921H9.8836V118.495C10.68 116.998 11.7471 115.915 13.085 115.246C14.4547 114.545 15.9678 114.194 17.6242 114.194C19.3125 114.194 20.8256 114.529 22.1635 115.198C23.5332 115.835 24.6163 116.807 25.4126 118.113C26.209 119.419 26.6072 121.075 26.6072 123.082V138.563H21.4945V124.706C21.4945 122.349 21.0008 120.709 20.0133 119.785C19.0577 118.861 17.8472 118.399 16.3819 118.399C15.3626 118.399 14.3432 118.654 13.3239 119.164C12.3364 119.642 11.5082 120.438 10.8392 121.553C10.2021 122.636 9.8836 124.101 9.8836 125.949V138.563H4.77097ZM48.8985 123.225C48.8985 121.632 48.4525 120.406 47.5606 119.546C46.7005 118.654 45.506 118.208 43.977 118.208C42.5435 118.208 41.3172 118.543 40.2978 119.212C39.2785 119.88 38.5299 120.964 38.0521 122.461L33.7517 120.645C34.357 118.702 35.5356 117.141 37.2876 115.962C39.0714 114.784 41.3649 114.194 44.1681 114.194C46.0794 114.194 47.7677 114.513 49.233 115.15C50.6983 115.755 51.845 116.679 52.6733 117.921C53.5333 119.164 53.9634 120.756 53.9634 122.7V133.355C53.9634 134.534 54.5527 135.123 55.7313 135.123C56.3047 135.123 56.8621 135.043 57.4036 134.884L57.1169 138.42C56.3843 138.77 55.4605 138.945 54.3456 138.945C53.3263 138.945 52.4025 138.77 51.5743 138.42C50.7779 138.038 50.1408 137.48 49.663 136.747C49.217 135.983 48.9941 135.043 48.9941 133.928V133.594L50.0453 133.546C49.7586 134.788 49.1693 135.824 48.2773 136.652C47.3854 137.448 46.3501 138.053 45.1715 138.468C43.9929 138.85 42.7984 139.041 41.5879 139.041C40.0908 139.041 38.7369 138.802 37.5265 138.324C36.3479 137.846 35.4082 137.13 34.7074 136.174C34.0384 135.187 33.7039 133.976 33.7039 132.543C33.7039 130.759 34.2773 129.293 35.4241 128.147C36.6027 127 38.2591 126.22 40.3934 125.805L49.663 123.99L49.6152 127.573L42.878 128.959C41.5401 129.214 40.5367 129.58 39.8678 130.058C39.1988 130.536 38.8644 131.237 38.8644 132.16C38.8644 133.052 39.1988 133.769 39.8678 134.311C40.5686 134.82 41.4924 135.075 42.6391 135.075C43.4355 135.075 44.2 134.979 44.9326 134.788C45.6971 134.597 46.382 134.295 46.9872 133.881C47.5925 133.435 48.0544 132.877 48.3729 132.208C48.7233 131.507 48.8985 130.679 48.8985 129.724V123.225ZM68.0445 103.921V131.874C68.0445 133.052 68.2515 133.865 68.6656 134.311C69.0797 134.757 69.7646 134.979 70.7202 134.979C71.2936 134.979 71.7714 134.948 72.1537 134.884C72.5678 134.788 73.0775 134.629 73.6827 134.406L73.1093 138.229C72.5678 138.483 71.9466 138.675 71.2458 138.802C70.545 138.961 69.8442 139.041 69.1434 139.041C67.0092 139.041 65.4324 138.499 64.4131 137.416C63.4256 136.301 62.9318 134.597 62.9318 132.304V103.921H68.0445ZM83.6647 103.921V131.874C83.6647 133.052 83.8717 133.865 84.2858 134.311C84.6999 134.757 85.3848 134.979 86.3404 134.979C86.9138 134.979 87.3916 134.948 87.7739 134.884C88.188 134.788 88.6977 134.629 89.3029 134.406L88.7295 138.229C88.188 138.483 87.5668 138.675 86.866 138.802C86.1652 138.961 85.4644 139.041 84.7636 139.041C82.6294 139.041 81.0526 138.499 80.0333 137.416C79.0458 136.301 78.552 134.597 78.552 132.304V103.921H83.6647ZM104.684 114.194C107.01 114.194 109.064 114.688 110.848 115.676C112.632 116.663 114.018 118.097 115.005 119.976C116.024 121.824 116.534 124.037 116.534 126.618C116.534 129.198 116.024 131.428 115.005 133.307C114.018 135.155 112.632 136.572 110.848 137.56C109.064 138.547 107.01 139.041 104.684 139.041C102.359 139.041 100.304 138.547 98.5204 137.56C96.7365 136.572 95.3349 135.155 94.3156 133.307C93.2962 131.428 92.7866 129.198 92.7866 126.618C92.7866 124.037 93.2962 121.824 94.3156 119.976C95.3349 118.097 96.7365 116.663 98.5204 115.676C100.304 114.688 102.359 114.194 104.684 114.194ZM104.684 118.208C103.251 118.208 102.024 118.543 101.005 119.212C100.018 119.849 99.253 120.788 98.7115 122.031C98.17 123.273 97.8992 124.802 97.8992 126.618C97.8992 128.402 98.17 129.931 98.7115 131.205C99.253 132.447 100.018 133.403 101.005 134.072C102.024 134.709 103.251 135.027 104.684 135.027C106.118 135.027 107.328 134.709 108.316 134.072C109.303 133.403 110.068 132.447 110.609 131.205C111.151 129.931 111.421 128.402 111.421 126.618C111.421 124.802 111.151 123.273 110.609 122.031C110.068 120.788 109.303 119.849 108.316 119.212C107.328 118.543 106.118 118.208 104.684 118.208Z" fill="#F1FDFF"/>
<path d="M39.6698 186.345V162.454H46.9326L47.3626 170.672L46.4548 169.765C46.7733 168.044 47.3308 166.611 48.1272 165.464C48.9554 164.318 49.9747 163.457 51.1852 162.884C52.4275 162.279 53.8132 161.976 55.3422 161.976C56.9986 161.976 58.4321 162.295 59.6425 162.932C60.8848 163.569 61.8564 164.509 62.5572 165.751C63.258 166.993 63.6084 168.554 63.6084 170.434V186.345H55.4855V172.584C55.4855 170.927 55.167 169.781 54.5299 169.143C53.8928 168.506 53.0805 168.188 52.093 168.188C51.3285 168.188 50.6118 168.379 49.9429 168.761C49.2739 169.112 48.7483 169.685 48.3661 170.481C47.9838 171.278 47.7927 172.345 47.7927 173.683V186.345H39.6698ZM83.3662 171.198C83.3662 170.083 83.0476 169.207 82.4106 168.57C81.8053 167.901 80.9771 167.567 79.9259 167.567C78.8747 167.567 77.9669 167.837 77.2024 168.379C76.4697 168.889 75.96 169.812 75.6733 171.15L68.7928 169.526C69.2388 167.232 70.4174 165.401 72.3286 164.031C74.2399 162.661 76.9316 161.976 80.4037 161.976C82.7291 161.976 84.7041 162.327 86.3286 163.027C87.9851 163.696 89.2433 164.716 90.1034 166.085C90.9953 167.423 91.4413 169.08 91.4413 171.055V179.799C91.4413 181.041 91.9987 181.662 93.1136 181.662C93.687 181.662 94.1489 181.599 94.4993 181.471L94.0215 186.106C93.0659 186.552 91.9032 186.775 90.5334 186.775C89.2911 186.775 88.1921 186.584 87.2365 186.202C86.2809 185.787 85.5323 185.182 84.9908 184.386C84.4492 183.558 84.1785 182.522 84.1785 181.28V180.993L85.0863 180.659C85.0863 182.029 84.6722 183.175 83.844 184.099C83.0476 185.023 81.9964 185.708 80.6904 186.154C79.4162 186.6 78.0784 186.823 76.6768 186.823C75.0522 186.823 73.6347 186.568 72.4242 186.058C71.2137 185.548 70.274 184.816 69.6051 183.86C68.968 182.873 68.6494 181.662 68.6494 180.229C68.6494 178.509 69.1591 177.091 70.1785 175.976C71.2297 174.829 72.8702 174.033 75.1 173.587L84.1307 171.724L84.0829 176.024L79.4959 176.98C78.5402 177.171 77.8235 177.457 77.3457 177.84C76.8997 178.19 76.6768 178.732 76.6768 179.464C76.6768 180.165 76.9316 180.691 77.4413 181.041C77.9509 181.391 78.5562 181.567 79.257 181.567C79.7985 181.567 80.3082 181.487 80.786 181.328C81.2957 181.169 81.7416 180.93 82.1239 180.611C82.5061 180.261 82.8087 179.831 83.0317 179.321C83.2547 178.811 83.3662 178.206 83.3662 177.505V171.198ZM109.578 161.976C111.999 161.976 114.006 162.327 115.599 163.027C117.223 163.696 118.482 164.604 119.373 165.751C120.297 166.866 120.871 168.076 121.094 169.382L113.592 171.867C113.369 170.497 112.955 169.478 112.35 168.809C111.776 168.108 110.932 167.758 109.817 167.758C108.798 167.758 107.938 167.997 107.237 168.475C106.568 168.92 106.058 169.653 105.708 170.672C105.358 171.66 105.182 172.934 105.182 174.495C105.182 176.056 105.373 177.33 105.756 178.318C106.138 179.273 106.679 179.974 107.38 180.42C108.081 180.834 108.909 181.041 109.865 181.041C110.661 181.041 111.314 180.898 111.824 180.611C112.365 180.293 112.811 179.847 113.162 179.273C113.512 178.7 113.735 177.999 113.831 177.171L121.141 179.512C120.918 180.914 120.313 182.172 119.326 183.287C118.37 184.37 117.096 185.23 115.503 185.867C113.91 186.504 112.047 186.823 109.913 186.823C107.301 186.823 105.023 186.345 103.08 185.389C101.137 184.402 99.6397 182.984 98.5885 181.137C97.5373 179.257 97.0117 177.012 97.0117 174.399C97.0117 171.787 97.5373 169.558 98.5885 167.71C99.6397 165.831 101.105 164.413 102.984 163.457C104.896 162.47 107.094 161.976 109.578 161.976ZM126.1 186.345V152.324H134.222V166.802C134.923 165.209 135.927 164.015 137.233 163.219C138.539 162.39 140.052 161.976 141.772 161.976C143.428 161.976 144.862 162.295 146.072 162.932C147.315 163.569 148.286 164.509 148.987 165.751C149.688 166.993 150.038 168.554 150.038 170.434V186.345H141.915V172.679C141.915 170.959 141.597 169.781 140.96 169.143C140.354 168.475 139.542 168.14 138.523 168.14C137.758 168.14 137.042 168.331 136.373 168.713C135.704 169.096 135.178 169.701 134.796 170.529C134.414 171.357 134.222 172.44 134.222 173.778V186.345H126.1ZM171.803 186.823C170.242 186.823 168.856 186.472 167.646 185.771C166.467 185.071 165.496 184.115 164.731 182.905C163.967 181.662 163.473 180.261 163.25 178.7L164.014 177.696L163.584 186.345H156.465V152.324H164.588V169.956L163.823 168.809C164.269 166.834 165.177 165.209 166.547 163.935C167.917 162.629 169.764 161.976 172.089 161.976C173.937 161.976 175.578 162.47 177.011 163.457C178.476 164.445 179.607 165.878 180.403 167.758C181.232 169.605 181.646 171.851 181.646 174.495C181.646 177.075 181.232 179.289 180.403 181.137C179.575 182.984 178.428 184.402 176.963 185.389C175.498 186.345 173.778 186.823 171.803 186.823ZM168.984 180.85C170.385 180.85 171.484 180.34 172.281 179.321C173.077 178.27 173.475 176.629 173.475 174.399C173.475 172.17 173.077 170.545 172.281 169.526C171.484 168.475 170.385 167.949 168.984 167.949C168.06 167.949 167.264 168.22 166.595 168.761C165.957 169.271 165.464 170.004 165.113 170.959C164.763 171.915 164.588 173.077 164.588 174.447C164.588 175.817 164.763 176.98 165.113 177.935C165.464 178.891 165.973 179.624 166.642 180.133C167.311 180.611 168.092 180.85 168.984 180.85ZM200.255 171.198C200.255 170.083 199.936 169.207 199.299 168.57C198.694 167.901 197.865 167.567 196.814 167.567C195.763 167.567 194.855 167.837 194.091 168.379C193.358 168.889 192.848 169.812 192.562 171.15L185.681 169.526C186.127 167.232 187.306 165.401 189.217 164.031C191.128 162.661 193.82 161.976 197.292 161.976C199.617 161.976 201.592 162.327 203.217 163.027C204.873 163.696 206.132 164.716 206.992 166.085C207.884 167.423 208.33 169.08 208.33 171.055V179.799C208.33 181.041 208.887 181.662 210.002 181.662C210.575 181.662 211.037 181.599 211.388 181.471L210.91 186.106C209.954 186.552 208.792 186.775 207.422 186.775C206.179 186.775 205.081 186.584 204.125 186.202C203.169 185.787 202.421 185.182 201.879 184.386C201.338 183.558 201.067 182.522 201.067 181.28V180.993L201.975 180.659C201.975 182.029 201.561 183.175 200.732 184.099C199.936 185.023 198.885 185.708 197.579 186.154C196.305 186.6 194.967 186.823 193.565 186.823C191.941 186.823 190.523 186.568 189.313 186.058C188.102 185.548 187.162 184.816 186.493 183.86C185.856 182.873 185.538 181.662 185.538 180.229C185.538 178.509 186.048 177.091 187.067 175.976C188.118 174.829 189.759 174.033 191.988 173.587L201.019 171.724L200.971 176.024L196.384 176.98C195.429 177.171 194.712 177.457 194.234 177.84C193.788 178.19 193.565 178.732 193.565 179.464C193.565 180.165 193.82 180.691 194.33 181.041C194.839 181.391 195.445 181.567 196.145 181.567C196.687 181.567 197.197 181.487 197.674 181.328C198.184 181.169 198.63 180.93 199.012 180.611C199.395 180.261 199.697 179.831 199.92 179.321C200.143 178.811 200.255 178.206 200.255 177.505V171.198ZM215.329 186.345V162.454H222.496L222.831 167.614C223.436 165.831 224.328 164.445 225.507 163.457C226.717 162.47 228.246 161.976 230.094 161.976C230.699 161.976 231.208 162.024 231.623 162.12C232.069 162.215 232.419 162.343 232.674 162.502L231.861 169.191C231.543 169.064 231.129 168.968 230.619 168.905C230.141 168.809 229.552 168.761 228.851 168.761C227.896 168.761 227.004 168.968 226.175 169.382C225.347 169.796 224.678 170.418 224.169 171.246C223.691 172.042 223.452 173.062 223.452 174.304V186.345H215.329Z" fill="#F1FDFF"/>
<path d="M142.139 43.3427L152.182 20.8323C155.427 13.5565 163.966 10.2773 171.242 13.5225C172.506 14.069 173.633 14.8205 174.624 15.6744L175.546 13.5908C177.049 10.1748 179.816 7.57886 183.3 6.24657C186.784 4.91427 190.576 5.01686 193.957 6.51983L194.88 6.92974C195.939 7.40794 196.895 7.98864 197.749 8.67181C201.506 3.30889 208.646 1.1571 214.862 3.88978L215.785 4.29968C222.65 7.37396 225.827 15.3328 223.026 22.2329C223.983 22.4379 224.973 22.7453 225.896 23.1552L226.818 23.5651C233.821 26.7075 236.997 34.9399 233.855 41.9765L220.567 71.7967C222.104 71.5917 223.675 71.5576 225.247 71.7967C229.55 72.4115 233.342 74.7001 235.938 78.1502C241.267 85.2892 239.832 95.3661 232.796 100.763C230.541 102.71 226.579 106.399 225.042 108.278C218.961 115.827 210.558 125.323 199.286 132.052C190.781 137.142 182.207 139.669 173.633 139.669C166.972 139.669 160.311 138.132 153.65 135.058C140.089 128.773 131.55 120.643 127.553 110.225C122.908 98.0985 123.181 85.0156 128.373 73.3663L142.139 43.3427ZM137.699 106.435C140.67 114.189 147.195 120.201 158.262 125.324C177.493 134.24 196.588 126.451 216.638 101.55C219.337 98.2367 225.212 93.0786 225.895 92.5321L226.203 92.293C227.364 91.439 228.116 90.1752 228.321 88.7065C228.526 87.2378 228.184 85.8372 227.296 84.6759C226.442 83.5145 225.144 82.763 223.709 82.5581C222.275 82.3531 220.84 82.6947 219.679 83.5828L212.642 88.5016C212.335 88.7749 211.959 89.0481 211.583 89.2531L198.193 98.6466C195.734 100.355 192.386 99.7738 190.644 97.3144C188.936 94.855 189.517 91.5074 191.976 89.7654L204.717 80.85L224.017 37.605C224.7 36.0337 224.017 34.189 222.446 33.506L221.523 33.0961C220.772 32.7545 219.918 32.7203 219.132 33.0277C218.347 33.3352 217.732 33.9159 217.39 34.6674L201.267 70.8074C200.038 73.5401 196.861 74.7699 194.128 73.5401C191.396 72.3102 190.166 69.1337 191.396 66.4011L207.519 30.261C207.826 29.5437 208.236 28.8605 208.646 28.2457C208.714 28.0066 208.782 27.7675 208.885 27.5625L212.984 18.3739C213.667 16.8026 212.984 14.9579 211.413 14.2748L210.49 13.8649C208.919 13.1818 207.074 13.8649 206.391 15.4362L202.19 24.8641C202.122 25.0349 202.053 25.2398 201.985 25.4106C201.951 25.5131 201.883 25.5814 201.848 25.6497L184.12 65.4438C183.232 67.4591 181.251 68.6546 179.167 68.6546C178.416 68.6546 177.698 68.518 176.981 68.1764C174.248 66.9467 173.018 63.7701 174.248 61.0374L192.216 20.7312C192.728 19.2282 192.045 17.5544 190.542 16.9054L189.62 16.4955C188.868 16.1539 188.014 16.1198 187.228 16.4272C186.443 16.7346 185.828 17.3153 185.486 18.0668L165.948 61.8927C165.06 63.9081 163.079 65.1035 160.995 65.1035C160.244 65.1035 159.526 64.9669 158.809 64.6253C156.076 63.3956 154.846 60.219 156.076 57.4863L168.271 30.1255C168.305 29.5106 168.442 28.8616 168.715 28.281C169.535 26.4706 168.715 24.3184 166.87 23.4989C165.06 22.6791 162.908 23.4989 162.088 25.3435L152.763 46.2143L138.28 78.0164C134.283 86.8977 134.079 97.0083 137.699 106.436L137.699 106.435Z" fill="#FDAE38"/>
<path d="M110.646 32.5805C115.429 20.6592 123.046 9.89928 132.713 1.35959C134.967 -0.621618 138.383 -0.416652 140.364 1.83779C142.346 4.09223 142.141 7.50802 139.886 9.48929C131.483 16.9016 124.856 26.2611 120.723 36.6112C119.869 38.729 117.854 40.0272 115.702 40.0272C115.019 40.0272 114.336 39.8905 113.687 39.6514C110.886 38.49 109.554 35.3476 110.647 32.5805L110.646 32.5805Z" fill="#70EBEE"/>
<path d="M251.959 29.6448C254.76 28.6201 257.868 30.0547 258.927 32.8557C263.948 46.4506 265.28 61.2071 262.752 75.5885C262.274 78.2187 260.02 80.0632 257.424 80.0632C257.116 80.0632 256.809 80.029 256.467 79.9949C253.53 79.4825 251.549 76.6816 252.061 73.7438C254.247 61.2759 253.12 48.4663 248.748 36.6481C247.723 33.7787 249.158 30.6702 251.959 29.6455L251.959 29.6448Z" fill="#70EBEE"/>
</svg>
