<svg width="861" height="111" viewBox="0 0 861 111" fill="none" xmlns="http://www.w3.org/2000/svg">
<path d="M0.348145 109V0.385742H20.9506V109H0.348145Z" fill="#fff"/>
<path d="M63.7991 110.446C51.8714 110.446 42.7148 106.952 36.3292 99.9641C29.9437 92.8556 26.7509 82.5544 26.7509 69.0604C26.7509 55.9279 30.0039 45.8677 36.5099 38.8797C43.016 31.7713 52.2328 28.2171 64.1606 28.2171C75.4859 28.2171 84.1606 32.0122 90.1847 39.6026C96.2087 47.193 99.2208 58.2171 99.2208 72.6749V73.3978H48.4377C48.4377 81.1086 49.8232 86.952 52.5943 90.9279C55.4859 94.7833 59.5822 96.7111 64.8834 96.7111C72.1124 96.7111 76.6907 93.5785 78.6184 87.3135L98.1365 88.94C92.4738 103.277 81.028 110.446 63.7991 110.446ZM63.7991 41.2291C58.9798 41.2291 55.2449 42.9159 52.5943 46.2894C50.0642 49.6629 48.7389 54.3617 48.6184 60.3857H79.3413C78.9798 54.0002 77.4136 49.2412 74.6425 46.1086C71.9919 42.8556 68.3774 41.2291 63.7991 41.2291Z" fill="#fff"/>
<path d="M122.552 110.446C114.841 110.446 108.817 108.398 104.48 104.301C100.263 100.085 98.1547 94.1809 98.1547 86.5906C98.1547 78.3978 100.805 72.193 106.107 67.9761C111.528 63.6388 119.299 61.4098 129.42 61.2894L146.588 60.9279V56.952C146.588 51.7713 145.685 47.9159 143.878 45.3857C142.07 42.8556 139.119 41.5906 135.022 41.5906C131.167 41.5906 128.335 42.4942 126.528 44.3014C124.841 45.9882 123.757 48.8195 123.275 52.7954L101.769 51.711C103.095 44.0002 106.588 38.1568 112.251 34.1809C118.034 30.205 125.926 28.2171 135.926 28.2171C145.926 28.2171 153.637 30.6869 159.058 35.6267C164.48 40.5665 167.191 47.6147 167.191 56.7713V85.5062C167.191 89.9641 167.673 93.0364 168.637 94.7231C169.601 96.4098 171.287 97.2532 173.697 97.2532C175.263 97.2532 176.769 97.1327 178.215 96.8918V107.916C177.01 108.157 175.926 108.458 174.962 108.819C173.998 109.06 172.974 109.241 171.89 109.362C170.926 109.482 169.902 109.603 168.817 109.723C167.733 109.844 166.468 109.904 165.022 109.904C159.841 109.904 155.986 108.639 153.456 106.109C151.046 103.579 149.601 99.8436 149.119 94.9038H148.757C142.854 105.265 134.119 110.446 122.552 110.446ZM146.588 72.3135L135.926 72.4942C131.107 72.7351 127.673 73.2773 125.625 74.1207C123.697 74.9641 122.191 76.2894 121.107 78.0966C120.143 79.7833 119.661 82.0725 119.661 84.9641C119.661 88.699 120.504 91.5303 122.191 93.458C123.998 95.2653 126.348 96.1689 129.239 96.1689C132.492 96.1689 135.444 95.2653 138.095 93.458C140.745 91.6508 142.793 89.2412 144.239 86.2291C145.805 83.0966 146.588 79.7833 146.588 76.2894V72.3135Z" fill="#fff"/>
<path d="M177.149 109V48.2773C177.149 43.94 177.089 40.3255 176.968 37.4339C176.848 34.5424 176.727 31.952 176.607 29.6628H196.125C196.245 30.5062 196.426 33.2171 196.667 37.7954C197.028 42.2532 197.209 45.205 197.209 46.6508H197.39C199.438 41.1086 201.245 37.193 202.812 34.9038C204.378 32.6147 206.185 30.9279 208.233 29.8436C210.402 28.7592 213.113 28.2171 216.366 28.2171C219.016 28.2171 221.125 28.5785 222.691 29.3014V46.4701C219.318 45.7472 216.426 45.3857 214.016 45.3857C208.836 45.3857 204.8 47.4942 201.908 51.711C199.137 55.8074 197.751 61.952 197.751 70.1448V109H177.149Z" fill="#fff"/>
<path d="M276.275 109V64.5424C276.275 50.5665 271.576 43.5785 262.179 43.5785C257.239 43.5785 253.203 45.7472 250.07 50.0845C247.058 54.3014 245.552 59.7833 245.552 66.5303V109H224.95V47.5544C224.95 43.3376 224.889 39.8436 224.769 37.0725C224.649 34.3014 224.528 31.8315 224.408 29.6628H243.926C244.046 30.6267 244.227 33.1568 244.468 37.2532C244.829 41.2291 245.01 44.0002 245.01 45.5665H245.191C247.962 39.5424 251.456 35.1448 255.673 32.3737C259.889 29.6026 264.889 28.2171 270.673 28.2171C279.106 28.2171 285.552 30.8074 290.01 35.9882C294.588 41.1689 296.877 48.7592 296.877 58.7592V109H276.275Z" fill="#fff"/>
<path d="M359.794 110.265C353.77 110.265 349.132 108.639 345.879 105.386C342.625 102.133 340.999 97.1327 340.999 90.3857V43.5785H330.879V29.6628H341.903L348.409 11.2291H361.24V29.6628H376.24V43.5785H361.24V84.7833C361.24 88.6388 361.963 91.5303 363.409 93.458C364.975 95.2653 367.264 96.1689 370.276 96.1689C371.842 96.1689 374.132 95.8074 377.144 95.0845V107.916C372.083 109.482 366.3 110.265 359.794 110.265Z" fill="#fff"/>
<path d="M454.366 69.2412C454.366 82.1327 450.751 92.2532 443.522 99.6026C436.414 106.832 426.595 110.446 414.065 110.446C401.655 110.446 391.896 106.832 384.788 99.6026C377.8 92.2532 374.306 82.1327 374.306 69.2412C374.306 56.4701 377.8 46.4701 384.788 39.2412C391.896 31.8918 401.775 28.2171 414.426 28.2171C427.318 28.2171 437.197 31.7713 444.065 38.8797C450.932 45.8677 454.366 55.9882 454.366 69.2412ZM432.679 69.2412C432.679 59.8436 431.113 53.0363 427.98 48.8195C424.968 44.6026 420.571 42.4942 414.788 42.4942C402.257 42.4942 395.992 51.4098 395.992 69.2412C395.992 78.0364 397.498 84.7833 400.51 89.4821C403.643 94.0604 408.041 96.3496 413.703 96.3496C426.354 96.3496 432.679 87.3135 432.679 69.2412Z" fill="#fff"/>
<path d="M492.108 15.3857V0.385742H512.71V15.3857H492.108ZM492.108 109V29.6628H512.71V109H492.108Z" fill="#fff"/>
<path d="M574.535 109V64.5424C574.535 50.5665 569.836 43.5785 560.438 43.5785C555.499 43.5785 551.462 45.7472 548.33 50.0845C545.318 54.3014 543.812 59.7833 543.812 66.5303V109H523.209V47.5544C523.209 43.3376 523.149 39.8436 523.029 37.0725C522.908 34.3014 522.788 31.8315 522.667 29.6628H542.185C542.306 30.6267 542.487 33.1568 542.728 37.2532C543.089 41.2291 543.27 44.0002 543.27 45.5665H543.45C546.222 39.5424 549.716 35.1448 553.932 32.3737C558.149 29.6026 563.149 28.2171 568.932 28.2171C577.366 28.2171 583.812 30.8074 588.27 35.9882C592.848 41.1689 595.137 48.7592 595.137 58.7592V109H574.535Z" fill="#fff"/>
<path d="M647.128 109H622.549L594.176 29.6628H616.043L629.778 74.1207C630.501 76.5303 632.248 82.6147 635.019 92.3737C635.501 90.3255 636.465 86.8315 637.911 81.8918C639.477 76.8315 645.14 59.4219 654.899 29.6628H676.405L647.128 109Z" fill="#fff"/>
<path d="M709.315 110.446C697.387 110.446 688.23 106.952 681.845 99.9641C675.459 92.8556 672.267 82.5544 672.267 69.0604C672.267 55.9279 675.52 45.8677 682.026 38.8797C688.532 31.7713 697.748 28.2171 709.676 28.2171C721.001 28.2171 729.676 32.0122 735.7 39.6026C741.724 47.193 744.736 58.2171 744.736 72.6749V73.3978H693.953C693.953 81.1086 695.339 86.952 698.11 90.9279C701.001 94.7833 705.098 96.7111 710.399 96.7111C717.628 96.7111 722.206 93.5785 724.134 87.3135L743.652 88.94C737.989 103.277 726.544 110.446 709.315 110.446ZM709.315 41.2291C704.495 41.2291 700.761 42.9159 698.11 46.2894C695.58 49.6629 694.254 54.3617 694.134 60.3857H724.857C724.495 54.0002 722.929 49.2412 720.158 46.1086C717.507 42.8556 713.893 41.2291 709.315 41.2291Z" fill="#fff"/>
<path d="M816.682 85.8677C816.682 93.5785 813.49 99.6026 807.104 103.94C800.839 108.277 792.164 110.446 781.08 110.446C770.237 110.446 761.923 108.759 756.14 105.386C750.357 101.892 746.502 96.5303 744.574 89.3014L762.646 86.5906C763.731 90.3255 765.538 92.9761 768.068 94.5424C770.598 96.1086 774.935 96.8918 781.08 96.8918C786.863 96.8918 791.08 96.1689 793.731 94.7231C796.381 93.1568 797.706 90.8074 797.706 87.6749C797.706 85.1448 796.622 83.1568 794.453 81.7111C792.405 80.2653 788.851 79.0002 783.791 77.9159C772.225 75.6267 764.393 73.5183 760.297 71.5906C756.2 69.5424 753.068 66.952 750.899 63.8195C748.851 60.6869 747.827 56.8315 747.827 52.2532C747.827 44.6629 750.719 38.7592 756.502 34.5424C762.285 30.3255 770.538 28.2171 781.261 28.2171C790.658 28.2171 798.249 30.0845 804.032 33.8195C809.815 37.4339 813.369 42.6749 814.694 49.5424L796.622 51.5303C796.02 48.2773 794.574 45.8677 792.285 44.3014C789.996 42.7351 786.321 41.952 781.261 41.952C776.321 41.952 772.646 42.5544 770.237 43.7592C767.827 44.9641 766.622 47.0725 766.622 50.0845C766.622 52.3737 767.526 54.1809 769.333 55.5062C771.261 56.8315 774.453 57.9159 778.911 58.7592C785.056 60.0845 790.538 61.4098 795.357 62.7351C800.297 64.0604 804.213 65.6869 807.104 67.6147C809.996 69.4219 812.285 71.7713 813.972 74.6629C815.779 77.5544 816.682 81.2894 816.682 85.8677Z" fill="#fff"/>
<path d="M842.906 110.265C836.881 110.265 832.243 108.639 828.99 105.386C825.737 102.133 824.11 97.1327 824.11 90.3857V43.5785H813.99V29.6628H825.014L831.52 11.2291H844.351V29.6628H859.351V43.5785H844.351V84.7833C844.351 88.6388 845.074 91.5303 846.52 93.458C848.086 95.2653 850.375 96.1689 853.387 96.1689C854.954 96.1689 857.243 95.8074 860.255 95.0845V107.916C855.195 109.482 849.412 110.265 842.906 110.265Z" fill="#fff"/>
</svg>
