<svg width="79" height="67" viewBox="0 0 79 67" fill="none" xmlns="http://www.w3.org/2000/svg">
<path d="M0 31.8198V4.98262H6.06797V11.1986L5.3773 10.1626C5.87063 8.22216 6.85729 6.77506 8.33729 5.82129C9.81728 4.86751 11.5604 4.39062 13.5666 4.39062C15.7701 4.39062 17.7106 4.96618 19.3879 6.11728C21.0652 7.26839 22.1505 8.78127 22.6439 10.6559L20.8185 10.8039C21.6408 8.66616 22.8741 7.07106 24.5185 6.01862C26.163 4.93329 28.0541 4.39062 30.1918 4.39062C32.0994 4.39062 33.7931 4.81818 35.2731 5.67329C36.786 6.52839 37.97 7.72883 38.8251 9.2746C39.6802 10.7875 40.1078 12.547 40.1078 14.5532V31.8198H33.6451V16.0826C33.6451 14.8986 33.4314 13.879 33.0038 13.0239C32.5763 12.1688 31.9843 11.511 31.2278 11.0506C30.4714 10.5573 29.5505 10.3106 28.4652 10.3106C27.4456 10.3106 26.5412 10.5573 25.7519 11.0506C24.9625 11.511 24.3541 12.1688 23.9265 13.0239C23.499 13.879 23.2852 14.8986 23.2852 16.0826V31.8198H16.8226V16.0826C16.8226 14.8986 16.6088 13.879 16.1812 13.0239C15.7537 12.1688 15.1453 11.511 14.3559 11.0506C13.5995 10.5573 12.695 10.3106 11.6426 10.3106C10.6231 10.3106 9.71861 10.5573 8.92928 11.0506C8.13995 11.511 7.53151 12.1688 7.10396 13.0239C6.67641 13.879 6.46263 14.8986 6.46263 16.0826V31.8198H0Z" fill="#fff"/>
<path d="M55.9437 65.8596L45.3864 39.0224H52.441L60.0877 60.137H57.473L65.169 39.0224H72.2236L61.6663 65.8596H55.9437Z" fill="#fff"/>
<path d="M28.9092 66.4516C26.2781 66.4516 23.8772 65.8432 21.7066 64.6263C19.5688 63.4094 17.8586 61.7485 16.5759 59.6437C15.3262 57.5388 14.7013 55.1379 14.7013 52.441C14.7013 49.7442 15.3262 47.3433 16.5759 45.2384C17.8586 43.1335 19.5688 41.4726 21.7066 40.2558C23.8443 39.0389 26.2452 38.4304 28.9092 38.4304C31.5403 38.4304 33.9247 39.0389 36.0625 40.2558C38.2003 41.4726 39.894 43.1335 41.1438 45.2384C42.4265 47.3104 43.0678 49.7113 43.0678 52.441C43.0678 55.1379 42.4265 57.5388 41.1438 59.6437C39.8611 61.7485 38.1509 63.4094 36.0132 64.6263C33.8754 65.8432 31.5074 66.4516 28.9092 66.4516ZM28.9092 60.5316C30.3563 60.5316 31.6225 60.1863 32.7078 59.4957C33.8261 58.805 34.6976 57.8512 35.3225 56.6343C35.9803 55.3846 36.3092 53.9868 36.3092 52.441C36.3092 50.8624 35.9803 49.481 35.3225 48.297C34.6976 47.0802 33.8261 46.1264 32.7078 45.4357C31.6225 44.7122 30.3563 44.3504 28.9092 44.3504C27.4292 44.3504 26.1301 44.7122 25.0119 45.4357C23.8937 46.1264 23.0057 47.0802 22.3479 48.297C21.723 49.481 21.4106 50.8624 21.4106 52.441C21.4106 53.9868 21.723 55.3846 22.3479 56.6343C23.0057 57.8512 23.8937 58.805 25.0119 59.4957C26.1301 60.1863 27.4292 60.5316 28.9092 60.5316Z" fill="#fff"/>
<g clip-path="url(#clip0_352_20306)">
<path d="M59.3976 32.8065C67.1626 32.8065 73.4575 26.5117 73.4575 18.7466C73.4575 10.9815 67.1626 4.68671 59.3976 4.68671C51.6325 4.68671 45.3376 10.9815 45.3376 18.7466C45.3376 26.5117 51.6325 32.8065 59.3976 32.8065Z" stroke="#BDA079" stroke-width="2.46665" stroke-linecap="round" stroke-linejoin="round"/>
<path d="M54.7104 18.7467L57.8349 21.8711L64.0837 15.6223" stroke="#BDA079" stroke-width="2.46665" stroke-linecap="round" stroke-linejoin="round"/>
</g>
<defs>
<clipPath id="clip0_352_20306">
<rect width="37.4931" height="37.4931" fill="white" transform="translate(40.6516)"/>
</clipPath>
</defs>
</svg>
