<svg width="129" height="29" viewBox="0 0 129 29" fill="none" xmlns="http://www.w3.org/2000/svg">
<rect width="29" height="29" rx="14.5" fill="#2914D4"/>
<path d="M20.312 17.7376C19.83 17.6174 19.3553 17.4762 18.8766 17.3808C18.1602 17.2501 17.5153 17.4277 16.9843 17.9283C16.6291 18.2656 16.2915 18.6208 15.9784 19.0081C15.1545 20.0094 14.4823 21.1225 13.7573 22.1818C13.6599 22.3251 13.587 22.5006 13.5003 22.6476C13.4677 22.7072 13.4314 22.7773 13.3813 22.8189C13.252 22.9512 13.0846 22.9876 12.9326 22.9111C12.7806 22.8347 12.6971 22.664 12.7487 22.4811C12.771 22.3825 12.8076 22.2771 12.8655 22.1791C13.0683 21.8007 13.1825 21.4034 13.2755 20.9986C13.4577 20.1997 13.6081 19.3897 13.6201 18.567C13.6159 17.5852 13.4158 16.6535 12.8915 15.7981C12.6259 15.3633 12.3461 14.9354 12.0698 14.4969C11.6467 13.8303 11.0837 13.2922 10.4885 12.7783C10.3969 12.6993 10.2731 12.6445 10.1603 12.5581C10.0826 12.5075 9.99434 12.4532 9.92401 12.3815C9.77273 12.2345 9.64875 12.2393 9.75347 12.0749C9.85453 11.921 10.0954 12.294 10.2793 12.3815C10.4137 12.44 10.6065 12.1725 10.73 12.2627C11.4318 12.7781 12.2692 12.7235 13.102 12.9301C13.4068 13.0124 13.7152 13.084 14.0239 13.1204C14.748 13.1947 15.3966 13.0066 15.9206 12.4917C16.3333 12.0917 16.679 11.6448 16.9825 11.1478C17.4629 10.3816 18.014 9.65166 18.4167 8.8348C18.6199 8.4211 18.8337 8.01109 19.0406 7.58685C19.1021 7.47829 19.153 7.36604 19.2251 7.26116C19.3291 7.16736 19.4577 7.1057 19.5994 7.14311C19.7412 7.18053 19.843 7.29858 19.8342 7.4609C19.8324 7.63745 19.8164 7.82085 19.7684 7.99318C19.5506 8.79159 19.3328 9.59001 19.1114 10.399C18.9156 11.1341 18.6985 11.8619 18.5276 12.5939C18.39 13.1958 18.4014 13.814 18.5586 14.4237C18.6986 14.9802 19.014 15.4087 19.4331 15.7787C19.7078 16.0158 19.9683 16.2598 20.2503 16.4759C20.3983 16.5982 20.5821 16.6856 20.7481 16.7905C21.0693 16.9966 21.4048 17.1958 21.7224 17.4124C21.8671 17.5099 21.933 17.6627 21.8851 17.8351C21.8514 18.0005 21.7009 18.1254 21.509 18.1297C21.3775 18.1312 21.2391 18.1186 21.1116 18.0743C20.8318 17.9889 20.5486 17.8788 20.2725 17.7829C20.301 17.7692 20.3084 17.7481 20.312 17.7376Z" fill="#F8F9FD"/>
<path d="M18.4995 17.1081C18.0175 16.9879 17.5428 16.8467 17.0641 16.7513C16.3477 16.6206 15.7027 16.7982 15.1718 17.2988C14.8166 17.6361 14.4789 17.9913 14.1659 18.3787C13.342 19.38 12.6697 20.493 11.9447 21.5523C11.8473 21.6956 11.7745 21.8711 11.6877 22.0182C11.6551 22.0777 11.6189 22.1478 11.5687 22.1894C11.4394 22.3217 11.272 22.3581 11.12 22.2817C10.968 22.2052 10.8845 22.0345 10.9361 21.8516C10.9584 21.7531 10.9951 21.6477 11.0529 21.5497C11.2557 21.1713 11.3699 20.7739 11.4629 20.3692C11.6452 19.5702 11.7956 18.7602 11.8075 17.9375C11.8033 16.9557 11.6032 16.024 11.079 15.1686C10.8134 14.7339 10.5335 14.3059 10.2573 13.8675C9.83414 13.2008 9.27113 12.6627 8.67589 12.1489C8.58432 12.0698 8.46052 12.015 8.3477 11.9286C8.27005 11.878 8.18177 11.8237 8.11144 11.752C7.96016 11.605 7.94804 11.4 8.05276 11.2356C8.15382 11.0817 8.34975 11.0316 8.53362 11.1191C8.66804 11.1776 8.80577 11.2609 8.92921 11.351C9.63102 11.8664 10.4566 12.0941 11.2895 12.3007C11.5942 12.3829 11.9026 12.4546 12.2113 12.4909C12.9354 12.5652 13.584 12.3771 14.108 11.8622C14.5207 11.4622 14.8664 11.0153 15.1699 10.5184C15.6503 9.75209 16.2014 9.02219 16.6041 8.20533C16.8073 7.79163 17.0212 7.38162 17.228 6.95738C17.2895 6.84881 17.3404 6.73656 17.4126 6.63169C17.5166 6.53788 17.6451 6.47622 17.7869 6.51364C17.9286 6.55106 18.0304 6.66911 18.0217 6.83143C18.0199 7.00798 18.0038 7.19137 17.9558 7.36371C17.738 8.16212 17.5203 8.96054 17.2988 9.76949C17.103 10.5047 16.8859 11.2325 16.715 11.9645C16.5774 12.5663 16.5888 13.1845 16.7461 13.7942C16.8861 14.3508 17.2015 14.7792 17.6205 15.1492C17.8952 15.3863 18.1557 15.6303 18.4377 15.8464C18.5857 15.9687 18.7696 16.0562 18.9355 16.1611C19.2567 16.3671 19.5923 16.5663 19.9098 16.7829C20.0545 16.8804 20.1205 17.0333 20.0725 17.2056C20.0388 17.3711 19.8883 17.496 19.6964 17.5002C19.5649 17.5018 19.4265 17.4891 19.299 17.4448C19.0192 17.3595 18.7361 17.2493 18.4599 17.1534C18.4885 17.1397 18.4958 17.1186 18.4995 17.1081Z" fill="#EFC1D6"/>
<path d="M40.92 23.5V6.7H48.48C49.632 6.7 50.656 6.948 51.552 7.444C52.448 7.94 53.152 8.62 53.664 9.484C54.176 10.348 54.432 11.34 54.432 12.46C54.432 13.628 54.176 14.668 53.664 15.58C53.152 16.492 52.448 17.212 51.552 17.74C50.656 18.252 49.632 18.508 48.48 18.508H46.104V23.5H40.92ZM46.008 14.092H47.52C47.824 14.092 48.096 14.036 48.336 13.924C48.576 13.796 48.76 13.62 48.888 13.396C49.032 13.172 49.104 12.892 49.104 12.556C49.104 12.22 49.032 11.948 48.888 11.74C48.76 11.532 48.576 11.38 48.336 11.284C48.096 11.172 47.824 11.116 47.52 11.116H46.008V14.092ZM65.4148 23.74C64.0868 23.74 62.8708 23.524 61.7668 23.092C60.6628 22.66 59.7028 22.052 58.8868 21.268C58.0708 20.484 57.4388 19.556 56.9908 18.484C56.5588 17.412 56.3428 16.244 56.3428 14.98C56.3428 13.7 56.5588 12.532 56.9908 11.476C57.4388 10.404 58.0708 9.476 58.8868 8.692C59.7028 7.908 60.6628 7.3 61.7668 6.868C62.8708 6.436 64.0788 6.22 65.3908 6.22C66.7188 6.22 67.9268 6.436 69.0148 6.868C70.1188 7.3 71.0788 7.908 71.8948 8.692C72.7108 9.476 73.3348 10.404 73.7668 11.476C74.2148 12.532 74.4388 13.692 74.4388 14.956C74.4388 16.236 74.2148 17.412 73.7668 18.484C73.3348 19.556 72.7108 20.484 71.8948 21.268C71.0788 22.052 70.1188 22.66 69.0148 23.092C67.9268 23.524 66.7268 23.74 65.4148 23.74ZM65.3908 18.94C65.9348 18.94 66.4308 18.844 66.8788 18.652C67.3428 18.46 67.7428 18.188 68.0788 17.836C68.4308 17.468 68.6948 17.044 68.8708 16.564C69.0628 16.084 69.1588 15.556 69.1588 14.98C69.1588 14.404 69.0628 13.876 68.8708 13.396C68.6948 12.916 68.4308 12.5 68.0788 12.148C67.7428 11.78 67.3428 11.5 66.8788 11.308C66.4308 11.116 65.9348 11.02 65.3908 11.02C64.8468 11.02 64.3428 11.116 63.8788 11.308C63.4308 11.5 63.0308 11.78 62.6788 12.148C62.3428 12.5 62.0788 12.916 61.8868 13.396C61.7108 13.876 61.6228 14.404 61.6228 14.98C61.6228 15.556 61.7108 16.084 61.8868 16.564C62.0788 17.044 62.3428 17.468 62.6788 17.836C63.0308 18.188 63.4308 18.46 63.8788 18.652C64.3428 18.844 64.8468 18.94 65.3908 18.94ZM85.5744 23.74C84.2304 23.74 82.9904 23.524 81.8544 23.092C80.7344 22.66 79.7584 22.06 78.9264 21.292C78.1104 20.508 77.4784 19.58 77.0304 18.508C76.5824 17.436 76.3584 16.26 76.3584 14.98C76.3584 13.7 76.5824 12.524 77.0304 11.452C77.4944 10.38 78.1424 9.46 78.9744 8.692C79.8064 7.908 80.7904 7.3 81.9264 6.868C83.0784 6.436 84.3424 6.22 85.7184 6.22C86.5024 6.22 87.2704 6.316 88.0224 6.508C88.7904 6.684 89.5104 6.964 90.1824 7.348C90.8704 7.716 91.4944 8.188 92.0544 8.764L88.9584 12.388C88.7344 12.116 88.4624 11.868 88.1424 11.644C87.8384 11.42 87.4784 11.244 87.0624 11.116C86.6624 10.972 86.1984 10.9 85.6704 10.9C85.1264 10.9 84.6064 10.996 84.1104 11.188C83.6304 11.364 83.2064 11.628 82.8384 11.98C82.4864 12.332 82.2064 12.764 81.9984 13.276C81.7904 13.788 81.6864 14.38 81.6864 15.052C81.6864 15.66 81.7904 16.212 81.9984 16.708C82.2064 17.204 82.5024 17.628 82.8864 17.98C83.2704 18.332 83.7344 18.604 84.2784 18.796C84.8224 18.988 85.4304 19.084 86.1024 19.084C86.5824 19.084 87.0384 19.012 87.4704 18.868C87.9024 18.724 88.2944 18.54 88.6464 18.316C88.9984 18.076 89.3024 17.812 89.5584 17.524L92.0304 21.412C91.6144 21.86 91.0624 22.26 90.3744 22.612C89.6864 22.964 88.9264 23.244 88.0944 23.452C87.2624 23.644 86.4224 23.74 85.5744 23.74ZM97.8403 18.724L96.0883 14.884L104.08 6.7H109.96L97.8403 18.724ZM94.2403 23.5V6.7H99.4243V23.5H94.2403ZM104.776 23.5L98.6803 15.556L102.04 12.652L110.656 23.5H104.776ZM116.792 23.5V15.124L116.96 16.3L110.168 6.7H115.928L121.112 14.14L117.872 14.068L122.552 6.7H128.168L121.664 16.564L122.024 14.932V23.5H116.792Z" fill="white"/>
</svg>
