<svg width="120" height="28" viewBox="0 0 120 28" fill="none" xmlns="http://www.w3.org/2000/svg">
<path d="M9.82849 27.1327C7.9817 27.1327 6.31199 26.8165 4.81938 26.184C3.35206 25.5516 2.18833 24.6408 1.32817 23.4518C0.468024 22.2627 0.0252985 20.8587 0 19.2396H5.69218C5.76807 20.3274 6.14755 21.1875 6.83061 21.82C7.53897 22.4525 8.50032 22.7687 9.71465 22.7687C10.9543 22.7687 11.9283 22.4778 12.6366 21.8959C13.345 21.2887 13.6992 20.5045 13.6992 19.5431C13.6992 18.7589 13.4588 18.1138 12.9782 17.6078C12.4975 17.1018 11.8903 16.7097 11.1567 16.4314C10.4483 16.1278 9.46166 15.799 8.19674 15.4448C6.47643 14.9388 5.07236 14.4455 3.98452 13.9648C2.92198 13.4588 1.99859 12.7125 1.21433 11.7259C0.455374 10.7139 0.0758958 9.37312 0.0758958 7.70341C0.0758958 6.1349 0.468024 4.76878 1.25228 3.60504C2.03653 2.44131 3.13702 1.55586 4.55374 0.948695C5.97046 0.316231 7.58957 0 9.41107 0C12.1433 0 14.3569 0.670411 16.0519 2.01123C17.7722 3.32676 18.7209 5.17356 18.898 7.55162H13.0541C13.0035 6.64087 12.6113 5.89456 11.8777 5.3127C11.1693 4.70553 10.2206 4.40195 9.03159 4.40195C7.99435 4.40195 7.15949 4.66758 6.52703 5.19885C5.91986 5.73012 5.61628 6.50173 5.61628 7.51367C5.61628 8.22203 5.84397 8.81655 6.29934 9.29722C6.78002 9.7526 7.36188 10.1321 8.04494 10.4357C8.7533 10.7139 9.73995 11.0428 11.0049 11.4223C12.7252 11.9283 14.1293 12.4342 15.2171 12.9402C16.3049 13.4462 17.241 14.2051 18.0252 15.2171C18.8095 16.229 19.2016 17.5572 19.2016 19.2016C19.2016 20.6183 18.8348 21.9339 18.1011 23.1482C17.3675 24.3625 16.2923 25.3365 14.8756 26.0702C13.4588 26.7785 11.7765 27.1327 9.82849 27.1327Z" fill="#1D1F23"/>
<path d="M22.5173 13.5853C22.5173 10.9796 23.0992 8.65211 24.2629 6.60292C25.4519 4.52844 27.0584 2.92198 29.0823 1.78355C31.1315 0.619814 33.421 0.037947 35.9508 0.037947C38.9108 0.037947 41.5039 0.796904 43.7302 2.31482C45.9564 3.83273 47.5123 5.93251 48.3977 8.61416H42.2881C41.681 7.34923 40.8208 6.40054 39.7077 5.76807C38.6198 5.13561 37.3549 4.81938 35.9129 4.81938C34.3697 4.81938 32.9909 5.1862 31.7766 5.91986C30.5875 6.62822 29.6515 7.64016 28.9684 8.95569C28.3107 10.2712 27.9818 11.8144 27.9818 13.5853C27.9818 15.3309 28.3107 16.8741 28.9684 18.215C29.6515 19.5305 30.5875 20.5551 31.7766 21.2887C32.9909 21.9971 34.3697 22.3513 35.9129 22.3513C37.3549 22.3513 38.6198 22.035 39.7077 21.4026C40.8208 20.7448 41.681 19.7835 42.2881 18.5185H48.3977C47.5123 21.2255 45.9564 23.3379 43.7302 24.8558C41.5292 26.3485 38.9361 27.0948 35.9508 27.0948C33.421 27.0948 31.1315 26.5255 29.0823 25.3871C27.0584 24.2234 25.4519 22.6169 24.2629 20.5677C23.0992 18.5186 22.5173 16.1911 22.5173 13.5853Z" fill="#1D1F23"/>
<path d="M72.6841 11.6879V13.9269H52.9892V11.6879H72.6841Z" fill="#1D1F23"/>
<path d="M95.7341 0.341529L87.2338 16.5453V26.8671H84.5775V16.5453L76.0013 0.341529H78.9991L85.9057 14.1166L92.7742 0.341529H95.7341Z" fill="#1D1F23"/>
<path d="M120 26.8671H117.344L102.658 4.55374V26.8671H100.002V0.341529H102.658L117.344 22.6169V0.341529H120V26.8671Z" fill="#1D1F23"/>
</svg>
