<svg width="1931" height="296" viewBox="0 0 1931 296" fill="none" xmlns="http://www.w3.org/2000/svg">
<path d="M114.073 296C91.9254 296 70.445 293.002 49.6317 287.006C29.0853 280.737 12.5414 272.696 0 262.884L22.0141 213.006C34.0217 222 48.2975 229.223 64.8415 234.674C81.3854 240.125 97.9293 242.851 114.473 242.851C132.885 242.851 146.494 240.125 155.299 234.674C164.105 228.95 168.508 221.455 168.508 212.188C168.508 205.374 165.839 199.786 160.503 195.425C155.433 190.792 148.762 187.112 140.49 184.387C132.485 181.661 121.544 178.663 107.669 175.392C86.3219 170.214 68.844 165.035 55.2353 159.856C41.6266 154.678 29.8858 146.365 20.0128 134.917C10.4067 123.47 5.60358 108.206 5.60358 89.1271C5.60358 72.5009 10.0064 57.5101 18.812 44.1547C27.6177 30.5267 40.8261 19.7606 58.4374 11.8563C76.3155 3.95211 98.0627 0 123.679 0C141.557 0 159.035 2.18047 176.113 6.54143C193.19 10.9024 208.133 17.1713 220.941 25.3481L200.928 75.6354C175.045 60.6446 149.162 53.1492 123.279 53.1492C105.134 53.1492 91.6586 56.1473 82.853 62.1436C74.3142 68.14 70.0448 76.0442 70.0448 85.8563C70.0448 95.6685 74.9813 103.028 84.8542 107.934C94.9941 112.567 110.337 117.201 130.884 121.834C152.231 127.013 169.708 132.192 183.317 137.37C196.926 142.549 208.533 150.726 218.139 161.901C228.012 173.075 232.949 188.203 232.949 207.282C232.949 223.635 228.413 238.626 219.34 252.254C210.535 265.61 197.193 276.239 179.315 284.144C161.437 292.048 139.689 296 114.073 296Z" fill="#FBFBFB"/>
<path d="M432.955 296C403.87 296 377.586 289.595 354.104 276.785C330.89 263.974 312.611 246.394 299.269 224.044C286.194 201.422 279.657 176.074 279.657 148C279.657 119.926 286.194 94.7145 299.269 72.3646C312.611 49.7422 330.89 32.0258 354.104 19.2155C377.586 6.40516 403.87 0 432.955 0C462.04 0 488.19 6.40516 511.405 19.2155C534.62 32.0258 552.898 49.7422 566.24 72.3646C579.582 94.7145 586.253 119.926 586.253 148C586.253 176.074 579.582 201.422 566.24 224.044C552.898 246.394 534.62 263.974 511.405 276.785C488.19 289.595 462.04 296 432.955 296ZM432.955 239.58C449.499 239.58 464.442 235.764 477.784 228.133C491.125 220.228 501.532 209.326 509.004 195.425C516.742 181.525 520.611 165.716 520.611 148C520.611 130.284 516.742 114.475 509.004 100.575C501.532 86.674 491.125 75.9079 477.784 68.2762C464.442 60.372 449.499 56.4199 432.955 56.4199C416.411 56.4199 401.468 60.372 388.126 68.2762C374.784 75.9079 364.244 86.674 356.506 100.575C349.035 114.475 345.299 130.284 345.299 148C345.299 165.716 349.035 181.525 356.506 195.425C364.244 209.326 374.784 220.228 388.126 228.133C401.468 235.764 416.411 239.58 432.955 239.58Z" fill="#FBFBFB"/>
<path d="M803.492 0C836.846 0 862.863 10.7661 881.542 32.2983C900.22 53.558 909.56 83.9484 909.56 123.47V291.094H844.718V125.514C844.718 102.619 839.381 85.4475 828.708 74C818.301 62.2799 803.759 56.4199 785.08 56.4199C765.334 56.4199 749.457 62.6888 737.45 75.2265C725.709 87.4917 719.838 105.753 719.838 130.011V291.094H654.997V4.90606H717.837V39.6575C727.443 26.5746 739.451 16.7624 753.86 10.221C768.269 3.40699 784.813 0 803.492 0Z" fill="#FBFBFB"/>
<path d="M993.573 4.90606H1120.85C1151.27 4.90606 1178.09 10.9024 1201.31 22.895C1224.79 34.6151 1242.93 51.2412 1255.74 72.7735C1268.82 94.3057 1275.35 119.381 1275.35 148C1275.35 176.619 1268.82 201.694 1255.74 223.227C1242.93 244.759 1224.79 261.521 1201.31 273.514C1178.09 285.234 1151.27 291.094 1120.85 291.094H993.573V4.90606ZM1117.65 236.718C1145.67 236.718 1167.95 228.814 1184.49 213.006C1201.31 196.924 1209.71 175.256 1209.71 148C1209.71 120.744 1201.31 99.2118 1184.49 83.4033C1167.95 67.3223 1145.67 59.2818 1117.65 59.2818H1058.41V236.718H1117.65Z" fill="#FBFBFB"/>
<path d="M1470.35 0C1496.23 0 1518.78 5.17864 1537.99 15.5359C1557.2 25.8932 1572.14 41.1565 1582.82 61.326C1593.49 81.4954 1598.83 105.889 1598.83 134.508V291.094H1533.99V222.409H1405.9V291.094H1341.86V134.508C1341.86 105.889 1347.2 81.4954 1357.87 61.326C1368.55 41.1565 1383.49 25.8932 1402.7 15.5359C1421.92 5.17864 1444.46 0 1470.35 0ZM1533.99 169.26V128.376C1533.99 104.663 1528.25 86.8103 1516.78 74.8177C1505.3 62.5525 1489.69 56.4199 1469.95 56.4199C1449.93 56.4199 1434.19 62.5525 1422.72 74.8177C1411.51 86.8103 1405.9 104.663 1405.9 128.376V169.26H1533.99Z" fill="#FBFBFB"/>
<path d="M1861.36 291.094L1807.32 211.37H1747.68V291.094H1682.84V4.90606H1804.12C1828.93 4.90606 1850.42 9.13074 1868.56 17.5801C1886.97 26.0295 1901.11 38.0221 1910.99 53.558C1920.86 69.0939 1925.8 87.4917 1925.8 108.751C1925.8 130.011 1920.73 148.409 1910.59 163.945C1900.71 179.208 1886.57 190.928 1868.16 199.105L1931 291.094H1861.36ZM1860.15 108.751C1860.15 92.6704 1855.08 80.4052 1844.95 71.9558C1834.81 63.2339 1820 58.8729 1800.52 58.8729H1747.68V158.63H1800.52C1820 158.63 1834.81 154.269 1844.95 145.547C1855.08 136.825 1860.15 124.56 1860.15 108.751Z" fill="#FBFBFB"/>
</svg>
