<?xml version="1.0" encoding="utf-8"?>
<!-- Generator: Adobe Illustrator 26.3.1, SVG Export Plug-In . SVG Version: 6.00 Build 0)  -->
<svg version="1.1" id="Ebene_1" xmlns="http://www.w3.org/2000/svg" xmlns:xlink="http://www.w3.org/1999/xlink" x="0px" y="0px"
	 viewBox="0 0 524.1 68.9" style="enable-background:new 0 0 524.1 68.9;" xml:space="preserve">
<style type="text/css">
	.st0{fill:#0498C0;}
	.st1{fill:#F6644F;}
</style>
<g>
	<path class="st0" d="M334.2,9.9c0-2.1-0.1-3.6-0.4-4.6c-0.8-2.2-3.2-3.3-7.3-3.3c-3.8,0-6.1,0.8-6.9,2.4c-0.5,0.9-0.8,1.7-0.8,2.3
		c-0.1,0.7-0.1,1.7-0.1,3v49c0,2.1,0.2,3.6,0.5,4.5c0.7,2.2,3.1,3.3,7.2,3.3h31.7c1.9,0,3.5-0.3,4.6-0.9c0.7-0.4,1.2-1,1.5-1.9
		c0.3-0.9,0.4-2.2,0.4-3.7c0-1.6-0.1-2.8-0.4-3.7c-0.3-0.9-0.9-1.6-1.8-2.1c-0.9-0.4-2.3-0.7-4.2-0.7h-24V9.9L334.2,9.9z
		 M385.3,42.2h17.3c2.1,0,3.6-0.2,4.6-0.5c2.2-0.7,3.4-3.1,3.4-7.2c0-3.8-0.8-6.1-2.4-6.9c-0.9-0.5-1.7-0.7-2.3-0.8
		c-0.7-0.1-1.7-0.1-3-0.1h-17.5v-8.9h27.1c2.1,0,3.6-0.2,4.6-0.5c2.2-0.7,3.3-3.1,3.3-7.2c0-3.8-0.8-6.1-2.4-6.9
		c-0.9-0.5-1.7-0.7-2.3-0.8c-0.7-0.1-1.7-0.1-3-0.1h-34.7c-3.1,0-5.2,0.5-6.3,1.6c-1.1,1.1-1.7,3.1-1.7,6.1v49
		c0,2.1,0.2,3.6,0.5,4.5c0.7,2.2,3.1,3.3,7.2,3.3h34.9c2.1,0,3.6-0.2,4.6-0.5c2.2-0.7,3.3-3.1,3.3-7.2c0-3.8-0.8-6.1-2.4-6.9
		c-0.9-0.5-1.7-0.7-2.3-0.8c-0.7-0.1-1.7-0.1-3-0.1h-27.2V42.2L385.3,42.2z M427.7,58.6c1.2,1.8,3.4,3.6,6.5,5.5
		c1.5,1,3.5,1.8,6,2.5c2.5,0.7,5.1,1,7.8,1c5.4,0,10.5-1.6,15.3-4.7c2.5-1.6,4.5-3.8,6-6.7c1.5-2.9,2.3-6.3,2.3-10.1
		c0-3.8-0.8-7-2.2-9.7c-1.5-2.6-3.4-4.5-5.6-5.5c-2.2-1.1-4.7-2-7.3-2.7c-2.6-0.7-5.1-1.3-7.3-1.6c-2.2-0.4-4.1-1-5.6-2
		c-1.5-1-2.2-2.3-2.2-3.9c0-1.6,0.6-2.9,1.9-3.8c1.3-0.9,2.9-1.4,4.8-1.4c1.9,0,3.5,0.4,4.7,1.1c0.4,0.3,0.9,0.7,1.4,1.1
		c0.5,0.5,0.8,0.8,1,0.9c1.8,1.2,3.3,1.8,4.6,1.8c2.1,0,4.2-1.5,6.2-4.4c1.4-2.1,2.1-3.7,2.1-4.8c0-1.2-0.9-2.6-2.7-4.3L463,5.2
		c-1.1-0.9-3.1-1.9-6-2.8C454,1.5,450.8,1,447.3,1c-6.6,0-11.9,1.9-15.7,5.8c-3.9,3.8-5.8,8.4-5.8,13.5c0,3.8,0.7,7,2.2,9.7
		c1.5,2.7,3.4,4.6,5.6,5.9c2.2,1.2,4.6,2.3,7.2,3.2c2.6,0.9,5,1.6,7.2,2c2.2,0.4,4.1,1.1,5.6,2c1.5,0.9,2.2,2,2.2,3.4
		c0,4.5-2.7,6.7-8.2,6.7c-1.3,0-2.7-0.5-4.2-1.4c-1.5-0.9-2.7-1.9-3.5-2.9c-2.9-2.9-5.2-4.4-6.9-4.4c-1.6,0-3.2,0.7-4.7,2.1
		c-2.5,2.5-3.8,4.5-3.8,6c0,1.5,0.8,3.2,2.3,5.1L427.7,58.6L427.7,58.6z M479.1,58.6c1.2,1.8,3.4,3.6,6.5,5.5c1.5,1,3.5,1.8,6,2.5
		c2.5,0.7,5.1,1,7.8,1c5.4,0,10.5-1.6,15.3-4.7c2.5-1.6,4.5-3.8,6-6.7c1.5-2.9,2.3-6.3,2.3-10.1c0-3.8-0.8-7-2.2-9.7
		c-1.5-2.6-3.4-4.5-5.6-5.5c-2.2-1.1-4.7-2-7.3-2.7c-2.6-0.7-5.1-1.3-7.3-1.6c-2.2-0.4-4.1-1-5.6-2c-1.5-1-2.2-2.3-2.2-3.9
		c0-1.6,0.6-2.9,1.9-3.8c1.3-0.9,2.8-1.4,4.8-1.4c1.9,0,3.5,0.4,4.7,1.1c0.4,0.3,0.9,0.7,1.4,1.1c0.5,0.5,0.8,0.8,1,0.9
		c1.8,1.2,3.3,1.8,4.6,1.8c2.1,0,4.2-1.5,6.2-4.4c1.4-2.1,2.1-3.7,2.1-4.8c0-1.2-0.9-2.6-2.7-4.3l-2.2-1.7c-1.1-0.9-3.1-1.9-6-2.8
		c-2.9-0.9-6.1-1.4-9.7-1.4c-6.6,0-11.9,1.9-15.7,5.8c-3.9,3.8-5.8,8.4-5.8,13.5c0,3.8,0.8,7,2.2,9.7c1.5,2.7,3.4,4.6,5.6,5.9
		c2.2,1.2,4.6,2.3,7.2,3.2c2.6,0.9,5,1.6,7.2,2c2.2,0.4,4.1,1.1,5.6,2c1.5,0.9,2.2,2,2.2,3.4c0,4.5-2.7,6.7-8.2,6.7
		c-1.3,0-2.7-0.5-4.2-1.4c-1.5-0.9-2.7-1.9-3.5-2.9c-2.9-2.9-5.2-4.4-6.9-4.4c-1.6,0-3.2,0.7-4.7,2.1c-2.5,2.5-3.8,4.5-3.8,6
		c0,1.5,0.8,3.2,2.3,5.1L479.1,58.6L479.1,58.6z"/>
	<path class="st1" d="M4.2,58.6c1.2,1.8,3.4,3.6,6.5,5.5c1.5,1,3.5,1.8,6,2.5c2.5,0.7,5.1,1,7.8,1c5.4,0,10.5-1.6,15.3-4.7
		c2.5-1.6,4.5-3.8,6-6.7c1.5-2.9,2.3-6.3,2.3-10.1c0-3.8-0.7-7-2.2-9.7c-1.5-2.6-3.4-4.5-5.6-5.5c-2.2-1.1-4.7-2-7.3-2.7
		c-2.6-0.7-5.1-1.3-7.3-1.6c-2.2-0.4-4.1-1-5.6-2c-1.5-1-2.2-2.3-2.2-3.9c0-1.6,0.6-2.9,1.9-3.8c1.3-0.9,2.9-1.4,4.8-1.4
		c1.9,0,3.5,0.4,4.7,1.1c0.4,0.3,0.9,0.7,1.4,1.1c0.5,0.5,0.8,0.8,1,0.9c1.8,1.2,3.3,1.8,4.6,1.8c2.1,0,4.2-1.5,6.2-4.4
		c1.4-2.1,2.1-3.7,2.1-4.8c0-1.2-0.9-2.6-2.7-4.3l-2.2-1.7c-1.1-0.9-3.1-1.9-6-2.8C30.5,1.5,27.3,1,23.8,1C17.2,1,11.9,2.9,8.1,6.8
		c-3.8,3.8-5.8,8.4-5.8,13.5c0,3.8,0.7,7,2.2,9.7c1.5,2.7,3.4,4.6,5.6,5.9c2.2,1.2,4.6,2.3,7.2,3.2c2.6,0.9,5,1.6,7.2,2
		c2.2,0.4,4.1,1.1,5.6,2c1.5,0.9,2.2,2,2.2,3.4c0,4.5-2.7,6.7-8.2,6.7c-1.3,0-2.7-0.5-4.2-1.4c-1.5-0.9-2.7-1.9-3.5-2.9
		c-2.9-2.9-5.2-4.4-6.9-4.4c-1.6,0-3.2,0.7-4.7,2.1c-2.5,2.5-3.8,4.5-3.8,6c0,1.5,0.8,3.2,2.3,5.1L4.2,58.6L4.2,58.6z M125.5,1.5
		c-1.2,0-2.2,0.3-3,0.9c-0.8,0.6-1.3,1.2-1.6,1.9c-0.3,0.6-0.7,1.6-1.1,3L110.1,37L99.9,6.4c-0.4-0.9-1.2-1.9-2.5-2.9
		c-1.3-1-2.7-1.5-4.2-1.5c-1.5,0-2.7,0.2-3.7,0.6c-2.2,0.9-3.7,2.6-4.5,5.1l-9.6,29L65.8,7.4c-0.6-1.9-1.2-3.4-2-4.3
		c-0.7-0.9-1.8-1.4-3.2-1.4c-1.4,0-2.9,0.3-4.6,0.9c-3.9,1.4-5.9,3.2-5.9,5.6c0,0.9,0.3,2.4,1,4.3l17,48.9l0.6,1.3
		c0.4,0.9,1.2,1.8,2.4,2.6c1.2,0.9,2.7,1.3,4.6,1.3c1.9,0,3.5-0.7,4.8-2c0.5-0.5,1-1.1,1.4-1.8c0.4-0.6,0.7-1.1,0.8-1.5
		c0.1-0.4,3.4-10.2,10-29.4l10.3,30.4c0.4,0.9,1.2,1.9,2.5,2.9c1.3,1,2.8,1.5,4.5,1.5c1.7,0,3.2-0.5,4.5-1.5c1.3-1,2-1.7,2.3-2.3
		c0.3-0.6,0.5-1.1,0.6-1.5l16.9-48.9c0.7-2.1,1.1-3.6,1.1-4.3c0-2.3-2-4.2-5.9-5.6C128.1,1.8,126.7,1.5,125.5,1.5L125.5,1.5z
		 M155.7,42.2H173c2.1,0,3.6-0.2,4.6-0.5c2.2-0.7,3.4-3.1,3.4-7.2c0-3.8-0.8-6.1-2.4-6.9c-0.9-0.5-1.7-0.7-2.3-0.8
		c-0.7-0.1-1.7-0.1-3-0.1h-17.5v-8.9h27.1c2.1,0,3.6-0.2,4.6-0.5c2.2-0.7,3.3-3.1,3.3-7.2c0-3.8-0.8-6.1-2.4-6.9
		c-0.9-0.5-1.7-0.7-2.3-0.8c-0.7-0.1-1.7-0.1-3-0.1h-34.7c-3.1,0-5.2,0.5-6.3,1.6c-1.1,1.1-1.7,3.1-1.7,6.1v49
		c0,2.1,0.2,3.6,0.5,4.5c0.7,2.2,3.1,3.3,7.2,3.3h34.9c2.1,0,3.6-0.2,4.6-0.5c2.2-0.7,3.3-3.1,3.3-7.2c0-3.8-0.8-6.1-2.4-6.9
		c-0.9-0.5-1.7-0.7-2.3-0.8c-0.7-0.1-1.7-0.1-3-0.1h-27.2V42.2L155.7,42.2z M213.3,42.2h17.3c2.1,0,3.6-0.2,4.6-0.5
		c2.2-0.7,3.4-3.1,3.4-7.2c0-3.8-0.8-6.1-2.4-6.9c-0.9-0.5-1.7-0.7-2.3-0.8c-0.7-0.1-1.7-0.1-3-0.1h-17.5v-8.9h27.1
		c2.1,0,3.6-0.2,4.6-0.5c2.2-0.7,3.3-3.1,3.3-7.2c0-3.8-0.8-6.1-2.4-6.9c-0.9-0.5-1.7-0.7-2.3-0.8c-0.7-0.1-1.7-0.1-3-0.1h-34.7
		c-3.1,0-5.2,0.5-6.3,1.6c-1.1,1.1-1.7,3.1-1.7,6.1v49c0,2.1,0.2,3.6,0.5,4.5c0.7,2.2,3.1,3.3,7.2,3.3h34.9c2.1,0,3.6-0.2,4.6-0.5
		c2.2-0.7,3.3-3.1,3.3-7.2c0-3.8-0.8-6.1-2.4-6.9c-0.9-0.5-1.7-0.7-2.3-0.8c-0.7-0.1-1.7-0.1-3-0.1h-27.2V42.2L213.3,42.2z
		 M254.2,2.8c-0.7,0.4-1.2,1-1.5,1.9c-0.3,0.9-0.4,2.1-0.4,3.7c0,1.5,0.1,2.8,0.4,3.7c0.3,0.9,0.9,1.6,1.8,2.1
		c0.9,0.4,2.3,0.7,4.1,0.7h16.9V59c0,1.4,0,2.4,0.1,3c0.1,0.7,0.4,1.4,0.8,2.3c0.4,0.9,1.2,1.5,2.3,1.8c1.1,0.4,2.5,0.5,4.4,0.5
		c1.8,0,3.3-0.2,4.4-0.5c1.1-0.4,1.9-1,2.3-1.8c0.4-0.9,0.7-1.6,0.8-2.2c0.1-0.6,0.1-1.6,0.1-3V14.8h16.8c1.9,0,3.4-0.3,4.5-0.8
		c0.7-0.4,1.2-1,1.5-1.9c0.3-0.9,0.4-2.1,0.4-3.7c0-1.5-0.1-2.8-0.4-3.7c-0.3-0.9-0.9-1.6-1.8-2.1C311,2.2,309.6,2,307.7,2h-49
		C256.8,2,255.3,2.3,254.2,2.8L254.2,2.8L254.2,2.8z"/>
</g>
</svg>
