<svg width="119" height="29" viewBox="0 0 119 29" fill="none" xmlns="http://www.w3.org/2000/svg">
<path d="M9.684 6.828C8.9 6.828 8.27467 6.968 7.808 7.248C7.36 7.528 7.01467 7.92933 6.772 8.452C6.52933 8.956 6.324 9.58133 6.156 10.328C5.78267 10.328 5.4 10.3093 5.008 10.272C4.616 10.2347 4.28 10.1413 4 9.992C4.18667 9.22667 4.32667 8.396 4.42 7.5C4.532 6.58533 4.588 5.77333 4.588 5.064C5.24133 5.08267 5.95067 5.10133 6.716 5.12C7.48133 5.13867 8.33067 5.148 9.264 5.148C10.216 5.148 11.3173 5.148 12.568 5.148C13.7253 5.148 14.78 5.148 15.732 5.148C16.684 5.12933 17.552 5.12 18.336 5.12C19.1387 5.10133 19.8573 5.08267 20.492 5.064C20.492 5.792 20.5293 6.576 20.604 7.416C20.6787 8.256 20.7907 9.11467 20.94 9.992C20.6413 10.104 20.3053 10.1973 19.932 10.272C19.5773 10.328 19.176 10.3467 18.728 10.328C18.5973 9.152 18.2893 8.27467 17.804 7.696C17.3373 7.11733 16.5907 6.828 15.564 6.828H9.684ZM10.384 6.016H14.584V19.652C14.584 20.38 14.64 20.9493 14.752 21.36C14.8827 21.752 15.1253 22.0227 15.48 22.172C15.8347 22.3213 16.3573 22.4147 17.048 22.452C17.1227 22.6387 17.1787 22.8907 17.216 23.208C17.2533 23.5253 17.272 23.8427 17.272 24.16C16.712 24.1227 16.0307 24.0947 15.228 24.076C14.4253 24.076 13.5667 24.076 12.652 24.076C12.0547 24.076 11.4293 24.076 10.776 24.076C10.1227 24.0947 9.516 24.104 8.956 24.104C8.396 24.1227 7.92 24.1413 7.528 24.16C7.528 23.8613 7.54667 23.5533 7.584 23.236C7.64 22.9187 7.70533 22.6573 7.78 22.452C8.47067 22.4147 9.00267 22.3213 9.376 22.172C9.768 22.0227 10.0293 21.752 10.16 21.36C10.3093 20.9493 10.384 20.38 10.384 19.652V6.016Z" fill="#FF7B00"/>
<path d="M29.8709 24.328C29.5536 24.1973 29.3296 24.0107 29.1989 23.768C29.0682 23.5067 29.0029 23.152 29.0029 22.704C29.0029 22.48 29.0216 22.2187 29.0589 21.92C29.0962 21.6027 29.1616 21.304 29.2549 21.024L29.3389 20.94C29.2082 21.4253 29.0216 21.8733 28.7789 22.284C28.5362 22.676 28.2469 23.0027 27.9109 23.264C27.5376 23.6 27.0802 23.852 26.5389 24.02C26.0162 24.188 25.3909 24.272 24.6629 24.272C23.4122 24.272 22.4416 24.0013 21.7509 23.46C21.0602 22.9187 20.7149 22.144 20.7149 21.136C20.7149 20.4267 20.8736 19.82 21.1909 19.316C21.5269 18.7933 21.9749 18.3547 22.5349 18C23.0949 17.6453 23.7202 17.356 24.4109 17.132C25.1016 16.908 25.8016 16.7307 26.5109 16.6C27.2389 16.4693 27.9202 16.3573 28.5549 16.264C28.5549 15.7227 28.5362 15.2747 28.4989 14.92C28.4802 14.5467 28.4242 14.2387 28.3309 13.996C28.2562 13.7347 28.1256 13.5107 27.9389 13.324C27.7336 13.0627 27.4909 12.8853 27.2109 12.792C26.9496 12.68 26.6696 12.624 26.3709 12.624C25.8482 12.624 25.4282 12.7827 25.1109 13.1C24.8122 13.3987 24.5882 13.7907 24.4389 14.276C24.2896 14.7613 24.1962 15.256 24.1589 15.76C23.7109 15.76 23.2909 15.7413 22.8989 15.704C22.5069 15.6667 22.1616 15.592 21.8629 15.48C21.9002 14.976 21.9096 14.4347 21.8909 13.856C21.8722 13.2773 21.8069 12.6987 21.6949 12.12C22.4789 11.7653 23.3749 11.4853 24.3829 11.28C25.4096 11.0747 26.3709 10.972 27.2669 10.972C28.3309 10.972 29.1896 11.1027 29.8429 11.364C30.4962 11.6067 30.9909 11.896 31.3269 12.232C31.7189 12.6427 32.0176 13.2027 32.2229 13.912C32.4469 14.6027 32.5589 15.6013 32.5589 16.908V19.344C32.5589 19.9413 32.5962 20.408 32.6709 20.744C32.7456 21.0613 32.8949 21.2853 33.1189 21.416C33.3616 21.5467 33.7256 21.6213 34.2109 21.64C34.2482 21.9387 34.2482 22.2467 34.2109 22.564C34.1736 22.8627 34.0896 23.1427 33.9589 23.404C33.2869 23.4227 32.5869 23.516 31.8589 23.684C31.1496 23.8333 30.4869 24.048 29.8709 24.328ZM26.0629 21.948C26.4362 21.948 26.8189 21.8267 27.2109 21.584C27.6029 21.3227 27.9202 20.94 28.1629 20.436C28.4242 19.932 28.5549 19.288 28.5549 18.504V17.748C28.0136 17.8413 27.5002 17.9533 27.0149 18.084C26.5482 18.2147 26.1376 18.3827 25.7829 18.588C25.4469 18.7747 25.1856 19.0173 24.9989 19.316C24.8122 19.596 24.7189 19.9507 24.7189 20.38C24.7189 20.94 24.8496 21.3413 25.1109 21.584C25.3909 21.8267 25.7082 21.948 26.0629 21.948Z" fill="#FF7B00"/>
<path d="M40.8644 24.328C40.6591 23.8053 40.3977 23.1987 40.0804 22.508C39.7817 21.8173 39.4551 21.0893 39.1004 20.324C38.7644 19.54 38.4191 18.784 38.0644 18.056C37.7284 17.3093 37.4111 16.6373 37.1124 16.04C36.8324 15.424 36.5991 14.9387 36.4124 14.584C36.2071 14.136 36.0204 13.8 35.8524 13.576C35.6844 13.352 35.5071 13.1933 35.3204 13.1C35.1524 12.988 34.9471 12.9133 34.7044 12.876C34.6297 12.6333 34.5644 12.372 34.5084 12.092C34.4711 11.7933 34.4524 11.4853 34.4524 11.168C34.8631 11.1867 35.3951 11.2053 36.0484 11.224C36.7204 11.2427 37.4204 11.252 38.1484 11.252C38.6337 11.252 39.1377 11.252 39.6604 11.252C40.1831 11.2333 40.6684 11.224 41.1164 11.224C41.5831 11.2053 41.9657 11.1867 42.2644 11.168C42.2644 11.448 42.2364 11.7467 42.1804 12.064C42.1244 12.3813 42.0591 12.6427 41.9844 12.848C41.2191 12.9227 40.7711 13.0813 40.6404 13.324C40.5097 13.548 40.6124 14.0147 40.9484 14.724C41.1351 15.0973 41.3311 15.536 41.5364 16.04C41.7417 16.5253 41.9564 17.0573 42.1804 17.636C42.4231 18.2147 42.6564 18.8027 42.8804 19.4C43.1044 19.9973 43.3097 20.5853 43.4964 21.164H42.7684C43.1791 20.0067 43.5711 18.98 43.9444 18.084C44.3177 17.188 44.6911 16.3013 45.0644 15.424C45.4377 14.4907 45.5404 13.8467 45.3724 13.492C45.2044 13.1373 44.8031 12.932 44.1684 12.876C44.0751 12.652 44.0004 12.3813 43.9444 12.064C43.8884 11.7467 43.8604 11.448 43.8604 11.168C44.2337 11.1867 44.6537 11.2053 45.1204 11.224C45.5871 11.2427 46.0724 11.252 46.5764 11.252C47.0804 11.252 47.5751 11.2427 48.0604 11.224C48.5457 11.2053 48.9751 11.1867 49.3484 11.168C49.3484 11.4667 49.3204 11.7747 49.2644 12.092C49.2271 12.4093 49.1524 12.6707 49.0404 12.876C48.7417 12.9507 48.4804 13.072 48.2564 13.24C48.0324 13.3893 47.8177 13.6227 47.6124 13.94C47.4257 14.2573 47.2204 14.7053 46.9964 15.284L43.1324 23.992C42.8711 24.1227 42.5257 24.216 42.0964 24.272C41.6671 24.3467 41.2564 24.3653 40.8644 24.328Z" fill="#FF7B00"/>
<path d="M57.2162 24.328C55.7415 24.328 54.4815 24.0667 53.4362 23.544C52.3909 23.0027 51.5975 22.2467 51.0562 21.276C50.5335 20.2867 50.2722 19.1293 50.2722 17.804C50.2722 16.3667 50.5802 15.144 51.1962 14.136C51.8122 13.1093 52.6522 12.3347 53.7162 11.812C54.7989 11.2707 56.0029 11 57.3282 11C58.8589 11 60.1375 11.28 61.1642 11.84C62.2095 12.4 62.9935 13.1747 63.5162 14.164C64.0575 15.1347 64.3282 16.264 64.3282 17.552C64.3282 18.9147 64.0389 20.1093 63.4602 21.136C62.8815 22.144 62.0602 22.928 60.9962 23.488C59.9322 24.048 58.6722 24.328 57.2162 24.328ZM57.5802 22.564C58.4575 22.564 59.1109 22.1533 59.5402 21.332C59.9882 20.492 60.2122 19.4467 60.2122 18.196C60.2122 17.0013 60.0629 15.9933 59.7642 15.172C59.4655 14.3507 59.0735 13.7347 58.5882 13.324C58.1029 12.9133 57.5709 12.708 56.9922 12.708C56.1149 12.708 55.4615 13.1187 55.0322 13.94C54.6029 14.7427 54.3882 15.7507 54.3882 16.964C54.3882 18.0467 54.5095 19.0173 54.7522 19.876C55.0135 20.716 55.3869 21.3787 55.8722 21.864C56.3575 22.3307 56.9269 22.564 57.5802 22.564Z" fill="#FF7B00"/>
<path d="M65.9629 24.16C65.9629 23.824 65.9722 23.516 65.9909 23.236C66.0282 22.9373 66.0842 22.676 66.1589 22.452C66.9056 22.4333 67.4002 22.256 67.6429 21.92C67.9042 21.584 68.0349 20.9493 68.0349 20.016V8.368C68.0349 7.95733 67.9789 7.63067 67.8669 7.388C67.7549 7.12667 67.5496 6.93067 67.2509 6.8C66.9522 6.65067 66.5136 6.55733 65.9349 6.52C65.9349 6.24 65.9536 5.96933 65.9909 5.708C66.0469 5.428 66.1309 5.16667 66.2429 4.924C66.8776 4.924 67.5216 4.87733 68.1749 4.784C68.8469 4.69067 69.4536 4.57867 69.9949 4.448C70.5362 4.29867 70.9376 4.14933 71.1989 4C71.4416 4.09333 71.6376 4.26133 71.7869 4.504C71.9362 4.728 72.0109 5.05467 72.0109 5.484V20.016C72.0109 20.9493 72.1322 21.584 72.3749 21.92C72.6176 22.256 73.0842 22.4333 73.7749 22.452C73.8496 22.676 73.8962 22.9467 73.9149 23.264C73.9336 23.5627 73.9429 23.8613 73.9429 24.16C73.6816 24.1413 73.3269 24.1227 72.8789 24.104C72.4496 24.104 71.9829 24.0947 71.4789 24.076C70.9749 24.076 70.4709 24.076 69.9669 24.076C69.4629 24.076 68.9496 24.076 68.4269 24.076C67.9042 24.0947 67.4282 24.104 66.9989 24.104C66.5696 24.1227 66.2242 24.1413 65.9629 24.16Z" fill="#FF7B00"/>
<path d="M84.8865 24.328C84.5692 24.1973 84.3452 24.0107 84.2145 23.768C84.0839 23.5067 84.0185 23.152 84.0185 22.704C84.0185 22.48 84.0372 22.2187 84.0745 21.92C84.1119 21.6027 84.1772 21.304 84.2705 21.024L84.3545 20.94C84.2239 21.4253 84.0372 21.8733 83.7945 22.284C83.5519 22.676 83.2625 23.0027 82.9265 23.264C82.5532 23.6 82.0959 23.852 81.5545 24.02C81.0319 24.188 80.4065 24.272 79.6785 24.272C78.4279 24.272 77.4572 24.0013 76.7665 23.46C76.0759 22.9187 75.7305 22.144 75.7305 21.136C75.7305 20.4267 75.8892 19.82 76.2065 19.316C76.5425 18.7933 76.9905 18.3547 77.5505 18C78.1105 17.6453 78.7359 17.356 79.4265 17.132C80.1172 16.908 80.8172 16.7307 81.5265 16.6C82.2545 16.4693 82.9359 16.3573 83.5705 16.264C83.5705 15.7227 83.5519 15.2747 83.5145 14.92C83.4959 14.5467 83.4399 14.2387 83.3465 13.996C83.2719 13.7347 83.1412 13.5107 82.9545 13.324C82.7492 13.0627 82.5065 12.8853 82.2265 12.792C81.9652 12.68 81.6852 12.624 81.3865 12.624C80.8639 12.624 80.4439 12.7827 80.1265 13.1C79.8279 13.3987 79.6039 13.7907 79.4545 14.276C79.3052 14.7613 79.2119 15.256 79.1745 15.76C78.7265 15.76 78.3065 15.7413 77.9145 15.704C77.5225 15.6667 77.1772 15.592 76.8785 15.48C76.9159 14.976 76.9252 14.4347 76.9065 13.856C76.8879 13.2773 76.8225 12.6987 76.7105 12.12C77.4945 11.7653 78.3905 11.4853 79.3985 11.28C80.4252 11.0747 81.3865 10.972 82.2825 10.972C83.3465 10.972 84.2052 11.1027 84.8585 11.364C85.5119 11.6067 86.0065 11.896 86.3425 12.232C86.7345 12.6427 87.0332 13.2027 87.2385 13.912C87.4625 14.6027 87.5745 15.6013 87.5745 16.908V19.344C87.5745 19.9413 87.6119 20.408 87.6865 20.744C87.7612 21.0613 87.9105 21.2853 88.1345 21.416C88.3772 21.5467 88.7412 21.6213 89.2265 21.64C89.2639 21.9387 89.2639 22.2467 89.2265 22.564C89.1892 22.8627 89.1052 23.1427 88.9745 23.404C88.3025 23.4227 87.6025 23.516 86.8745 23.684C86.1652 23.8333 85.5025 24.048 84.8865 24.328ZM81.0785 21.948C81.4519 21.948 81.8345 21.8267 82.2265 21.584C82.6185 21.3227 82.9359 20.94 83.1785 20.436C83.4399 19.932 83.5705 19.288 83.5705 18.504V17.748C83.0292 17.8413 82.5159 17.9533 82.0305 18.084C81.5639 18.2147 81.1532 18.3827 80.7985 18.588C80.4625 18.7747 80.2012 19.0173 80.0145 19.316C79.8279 19.596 79.7345 19.9507 79.7345 20.38C79.7345 20.94 79.8652 21.3413 80.1265 21.584C80.4065 21.8267 80.7239 21.948 81.0785 21.948Z" fill="#FF7B00"/>
<path d="M95.9516 24.328C94.6636 24.328 93.6929 23.992 93.0396 23.32C92.3862 22.648 92.0596 21.5187 92.0596 19.932V13.632C91.7609 13.52 91.4529 13.436 91.1356 13.38C90.8182 13.324 90.4356 13.2867 89.9876 13.268C89.9876 12.932 90.0062 12.6333 90.0436 12.372C90.0996 12.1107 90.1929 11.8307 90.3236 11.532H92.0596V8.088C92.6756 7.99467 93.2822 7.82667 93.8796 7.584C94.4769 7.32267 94.9716 7.03333 95.3636 6.716C95.6249 6.828 95.8022 6.98667 95.8956 7.192C95.9889 7.39733 96.0356 7.808 96.0356 8.424V11.532H99.4796C99.4796 11.868 99.4609 12.1853 99.4236 12.484C99.3862 12.764 99.3209 13.0347 99.2276 13.296C98.5929 13.296 98.0142 13.3333 97.4916 13.408C96.9689 13.4827 96.4836 13.5853 96.0356 13.716V19.456C96.0356 20.2027 96.0822 20.7907 96.1756 21.22C96.2876 21.6307 96.4556 21.92 96.6796 22.088C96.9036 22.256 97.1742 22.34 97.4916 22.34C97.8089 22.34 98.1076 22.3027 98.3876 22.228C98.6862 22.1347 98.9662 22.0133 99.2276 21.864C99.4889 22.2 99.6289 22.6573 99.6476 23.236C99.2742 23.5533 98.7422 23.8147 98.0516 24.02C97.3796 24.2253 96.6796 24.328 95.9516 24.328Z" fill="#FF7B00"/>
<path d="M110.371 24.328C110.054 24.1973 109.83 24.0107 109.699 23.768C109.568 23.5067 109.503 23.152 109.503 22.704C109.503 22.48 109.522 22.2187 109.559 21.92C109.596 21.6027 109.662 21.304 109.755 21.024L109.839 20.94C109.708 21.4253 109.522 21.8733 109.279 22.284C109.036 22.676 108.747 23.0027 108.411 23.264C108.038 23.6 107.58 23.852 107.039 24.02C106.516 24.188 105.891 24.272 105.163 24.272C103.912 24.272 102.942 24.0013 102.251 23.46C101.56 22.9187 101.215 22.144 101.215 21.136C101.215 20.4267 101.374 19.82 101.691 19.316C102.027 18.7933 102.475 18.3547 103.035 18C103.595 17.6453 104.22 17.356 104.911 17.132C105.602 16.908 106.302 16.7307 107.011 16.6C107.739 16.4693 108.42 16.3573 109.055 16.264C109.055 15.7227 109.036 15.2747 108.999 14.92C108.98 14.5467 108.924 14.2387 108.831 13.996C108.756 13.7347 108.626 13.5107 108.439 13.324C108.234 13.0627 107.991 12.8853 107.711 12.792C107.45 12.68 107.17 12.624 106.871 12.624C106.348 12.624 105.928 12.7827 105.611 13.1C105.312 13.3987 105.088 13.7907 104.939 14.276C104.79 14.7613 104.696 15.256 104.659 15.76C104.211 15.76 103.791 15.7413 103.399 15.704C103.007 15.6667 102.662 15.592 102.363 15.48C102.4 14.976 102.41 14.4347 102.391 13.856C102.372 13.2773 102.307 12.6987 102.195 12.12C102.979 11.7653 103.875 11.4853 104.883 11.28C105.91 11.0747 106.871 10.972 107.767 10.972C108.831 10.972 109.69 11.1027 110.343 11.364C110.996 11.6067 111.491 11.896 111.827 12.232C112.219 12.6427 112.518 13.2027 112.723 13.912C112.947 14.6027 113.059 15.6013 113.059 16.908V19.344C113.059 19.9413 113.096 20.408 113.171 20.744C113.246 21.0613 113.395 21.2853 113.619 21.416C113.862 21.5467 114.226 21.6213 114.711 21.64C114.748 21.9387 114.748 22.2467 114.711 22.564C114.674 22.8627 114.59 23.1427 114.459 23.404C113.787 23.4227 113.087 23.516 112.359 23.684C111.65 23.8333 110.987 24.048 110.371 24.328ZM106.563 21.948C106.936 21.948 107.319 21.8267 107.711 21.584C108.103 21.3227 108.42 20.94 108.663 20.436C108.924 19.932 109.055 19.288 109.055 18.504V17.748C108.514 17.8413 108 17.9533 107.515 18.084C107.048 18.2147 106.638 18.3827 106.283 18.588C105.947 18.7747 105.686 19.0173 105.499 19.316C105.312 19.596 105.219 19.9507 105.219 20.38C105.219 20.94 105.35 21.3413 105.611 21.584C105.891 21.8267 106.208 21.948 106.563 21.948Z" fill="#FF7B00"/>
</svg>
