<svg width="144" height="17" viewBox="0 0 144 17" fill="none" xmlns="http://www.w3.org/2000/svg">
<path d="M14.444 0.819999V3.879H9.499V16H5.543V3.879H0.575V0.819999H14.444ZM25.3304 0.819999C27.1397 0.819999 28.5427 1.24933 29.5394 2.108C30.5514 2.95133 31.0574 4.07833 31.0574 5.489C31.0574 7.03767 30.559 8.21833 29.5624 9.031C28.5657 9.84367 27.1627 10.25 25.3534 10.25L24.9854 10.457H21.9724V16H18.0854V0.819999H25.3304ZM24.7784 7.651C25.545 7.651 26.12 7.49767 26.5034 7.191C26.8867 6.88433 27.0784 6.39367 27.0784 5.719C27.0784 5.05967 26.8867 4.57667 26.5034 4.27C26.12 3.96333 25.545 3.81 24.7784 3.81H21.9724V7.651H24.7784ZM27.1014 8.479L31.9544 16H27.5844L23.6974 9.353L27.1014 8.479ZM39.2788 0.819999V16H35.3228V0.819999H39.2788ZM44.0251 16V0.819999H55.8471V3.879H47.9811V6.961H54.2371V9.836H47.9811V12.941H56.1461V16H44.0251ZM59.9148 16V0.819999H67.2978C69.1685 0.835333 70.5485 1.19567 71.4378 1.901C72.3272 2.591 72.7718 3.59533 72.7718 4.914C72.7718 5.77267 72.5188 6.51633 72.0128 7.145C71.5068 7.75833 70.7325 8.14933 69.6898 8.318V8.341C70.8552 8.49433 71.7215 8.90067 72.2888 9.56C72.8715 10.204 73.1628 10.986 73.1628 11.906C73.1628 13.2093 72.7028 14.2213 71.7828 14.942C70.8628 15.6473 69.4828 16 67.6428 16H59.9148ZM63.7328 13.217H66.9758C67.6965 13.217 68.2332 13.0713 68.5858 12.78C68.9385 12.4887 69.1148 12.067 69.1148 11.515C69.1148 10.9783 68.9385 10.572 68.5858 10.296C68.2332 10.0047 67.6965 9.859 66.9758 9.859H63.7328V13.217ZM63.7328 7.03H66.6078C68.0185 7.03 68.7238 6.478 68.7238 5.374C68.7238 4.27 68.0185 3.718 66.6078 3.718H63.7328V7.03ZM90.7255 0.819999V16H86.7695V0.819999H90.7255ZM80.9735 0.819999V16H77.0175V0.819999H80.9735ZM88.8855 6.823V9.882H78.9495V6.823H88.8855ZM108.739 0.819999V9.813C108.739 11.9597 108.164 13.5697 107.014 14.643C105.879 15.701 104.192 16.23 101.954 16.23C99.7305 16.23 98.0438 15.701 96.8938 14.643C95.7438 13.5697 95.1688 11.9597 95.1688 9.813V0.819999H99.1478V9.882C99.1478 10.9707 99.3778 11.7833 99.8378 12.32C100.313 12.8567 101.018 13.125 101.954 13.125C102.904 13.125 103.61 12.8567 104.07 12.32C104.545 11.7833 104.783 10.9707 104.783 9.882V0.819999H108.739ZM126.448 0.819999V9.813C126.448 11.9597 125.873 13.5697 124.723 14.643C123.588 15.701 121.902 16.23 119.663 16.23C117.44 16.23 115.753 15.701 114.603 14.643C113.453 13.5697 112.878 11.9597 112.878 9.813V0.819999H116.857V9.882C116.857 10.9707 117.087 11.7833 117.547 12.32C118.022 12.8567 118.728 13.125 119.663 13.125C120.614 13.125 121.319 12.8567 121.779 12.32C122.254 11.7833 122.492 10.9707 122.492 9.882V0.819999H126.448ZM136.82 0.59C138.231 0.59 139.473 0.812333 140.546 1.257C141.635 1.68633 142.578 2.32267 143.375 3.166L141.466 5.719C140.807 5.029 140.094 4.51533 139.327 4.178C138.576 3.82533 137.717 3.649 136.751 3.649C136.184 3.649 135.724 3.71033 135.371 3.833C135.018 3.95567 134.765 4.12433 134.612 4.339C134.459 4.55367 134.382 4.799 134.382 5.075C134.382 5.397 134.528 5.673 134.819 5.903C135.126 6.11767 135.616 6.30167 136.291 6.455L138.844 7.03C140.362 7.38267 141.474 7.89633 142.179 8.571C142.884 9.24567 143.237 10.1427 143.237 11.262C143.237 12.3353 142.961 13.2477 142.409 13.999C141.857 14.735 141.098 15.2947 140.132 15.678C139.166 16.046 138.062 16.23 136.82 16.23C135.808 16.23 134.842 16.1227 133.922 15.908C133.002 15.678 132.174 15.356 131.438 14.942C130.702 14.528 130.081 14.0527 129.575 13.516L131.484 10.871C131.867 11.3157 132.335 11.7143 132.887 12.067C133.454 12.4043 134.068 12.6727 134.727 12.872C135.402 13.0713 136.084 13.171 136.774 13.171C137.311 13.171 137.755 13.1173 138.108 13.01C138.476 12.9027 138.744 12.7417 138.913 12.527C139.082 12.3123 139.166 12.0593 139.166 11.768C139.166 11.446 139.051 11.1777 138.821 10.963C138.591 10.733 138.154 10.5413 137.51 10.388L134.704 9.767C133.845 9.56767 133.079 9.307 132.404 8.985C131.745 8.64767 131.223 8.203 130.84 7.651C130.457 7.08367 130.265 6.37833 130.265 5.535C130.265 4.58433 130.526 3.741 131.047 3.005C131.568 2.25367 132.32 1.66333 133.301 1.234C134.282 0.804666 135.455 0.59 136.82 0.59Z" fill="#2C893F"/>
</svg>
