<svg width="125" height="42" viewBox="0 0 125 42" fill="none" xmlns="http://www.w3.org/2000/svg">
<path d="M11.1608 29.2849L0 1.10925H7.41598L15.5957 23.4865H15.6484L23.828 1.10925H31.065L19.9041 29.2849H11.1608Z" fill="#09101D"/>
<path d="M45.0331 41.993C43.041 42.0024 41.0556 41.7618 39.1235 41.2767C37.3681 40.8486 35.6904 40.1485 34.1514 39.2017C32.8083 38.3864 31.6279 37.3293 30.6699 36.084L33.9302 31.1651C34.6493 32.2226 35.5801 33.1192 36.6638 33.7983C37.8093 34.5271 39.05 35.0942 40.3507 35.4836C41.7169 35.8963 43.1372 36.1022 44.5643 36.0945C46.3341 36.1403 48.0909 35.78 49.6997 35.0412C51.0754 34.3982 52.2365 33.3725 53.0443 32.0867C53.865 30.7098 54.2778 29.1282 54.2346 27.5259V25.0401H54.1767C53.2758 26.7755 51.9147 28.2295 50.2425 29.243C48.5703 30.2564 46.6514 30.7902 44.696 30.7859C42.6551 30.8411 40.6381 30.3346 38.8654 29.3218C37.2196 28.3411 35.8947 26.9028 35.0521 25.1824C34.1251 23.2813 33.6613 21.1879 33.6985 19.0732V1.10925H40.7721V18.0147C40.7465 19.2615 41.0022 20.4982 41.52 21.6327C41.9824 22.6453 42.7313 23.5004 43.6742 24.0922C44.6798 24.7002 45.8387 25.0073 47.0135 24.977C48.2874 24.992 49.5409 24.6568 50.6372 24.0079C51.7259 23.37 52.6327 22.4633 53.2707 21.3747C53.95 20.19 54.2942 18.8428 54.2662 17.4775V1.10925H61.2819V27.7366C61.3488 30.3986 60.6583 33.0248 59.2909 35.3098C57.9286 37.4808 55.9602 39.2055 53.6289 40.2708C50.9294 41.4834 47.9914 42.072 45.0331 41.993V41.993Z" fill="#09101D"/>
<path d="M83.6035 0.166551C85.4492 0.115762 87.2765 0.543964 88.9074 1.40943C90.3682 2.23151 91.5579 3.46131 92.331 4.94851C93.1826 6.65332 93.6005 8.54183 93.5477 10.4467V29.285H86.532V12.3216C86.532 10.3379 86.0053 8.79129 84.9519 7.68182C84.3943 7.12092 83.7248 6.68377 82.987 6.39884C82.2492 6.11391 81.4597 5.98761 80.6698 6.02815C79.292 6.00413 77.9314 6.33608 76.7195 6.99191C75.5729 7.62248 74.6246 8.55981 73.9807 9.69889C73.2916 10.96 72.9482 12.3807 72.9852 13.8173V29.285H65.9221V1.10926H72.9905V6.0808H73.0484C74.0677 4.25039 75.5663 2.73201 77.3832 1.68856C79.288 0.646475 81.4327 0.121715 83.6035 0.166551V0.166551Z" fill="#09101D"/>
<path d="M107.253 30.2224C105.359 30.2635 103.476 29.9158 101.722 29.2007C100.246 28.5991 98.969 27.5956 98.0352 26.3041C97.1534 25.062 96.6887 23.572 96.708 22.0488C96.708 19.5911 97.7754 17.546 99.9103 15.9133C102.045 14.2807 105.269 13.2274 109.581 12.7535L115.827 12.0372C116.429 12.004 117.002 11.7704 117.455 11.3736C117.644 11.1982 117.794 10.9843 117.894 10.7463C117.994 10.5084 118.041 10.2518 118.034 9.99382C118.049 9.1199 117.777 8.26512 117.26 7.56071C116.683 6.81694 115.907 6.25252 115.021 5.93335C113.955 5.52945 112.822 5.33283 111.682 5.35405C110.408 5.33626 109.147 5.61007 107.995 6.15455C106.937 6.65094 106.009 7.3887 105.288 8.30854C104.622 9.1281 104.184 10.1092 104.019 11.1524L97.4822 9.61463C97.7131 7.78777 98.4938 6.07418 99.7207 4.70099C101.089 3.15664 102.814 1.97052 104.745 1.24618C106.938 0.398147 109.273 -0.0236853 111.624 0.00329745C114.034 -0.0439608 116.426 0.417218 118.645 1.35677C120.547 2.15638 122.177 3.48988 123.338 5.19604C124.468 6.93676 125.046 8.97781 124.997 11.0524V29.285H118.076V24.424H118.024C117.377 25.5883 116.516 26.6194 115.485 27.4627C114.378 28.3673 113.114 29.0601 111.756 29.5061C110.304 29.9893 108.783 30.2312 107.253 30.2224ZM109.628 25.0876C111.112 25.1104 112.58 24.7782 113.91 24.1185C115.133 23.5167 116.158 22.5774 116.865 21.4116C117.566 20.2546 117.931 18.9251 117.918 17.5723V16.1925L111.071 16.9087C108.494 17.2388 106.626 17.7829 105.467 18.5413C104.308 19.2997 103.727 20.2477 103.724 21.3852C103.729 21.9377 103.883 22.4785 104.171 22.9504C104.458 23.4223 104.868 23.8077 105.356 24.0659C106.657 24.7995 108.137 25.1535 109.628 25.0876V25.0876Z" fill="#09101D"/>
</svg>
