<svg id="Ebene_1" data-name="Ebene 1" xmlns="http://www.w3.org/2000/svg" viewBox="0 0 317.54 59.61"><defs><style>.cls-1{fill:#2d4c79;}.cls-2{fill:#f19c4a;}</style></defs><path class="cls-1" d="M259.15,19.35a19,19,0,0,1,7.72,7.45,22.42,22.42,0,0,1,2.81,11.39,22.45,22.45,0,0,1-2.81,11.39A19,19,0,0,1,259.15,57a25.34,25.34,0,0,1-22.28,0,18.94,18.94,0,0,1-7.76-7.45,22.45,22.45,0,0,1-2.81-11.39,22.42,22.42,0,0,1,2.81-11.39,18.94,18.94,0,0,1,7.76-7.45,25.25,25.25,0,0,1,22.28,0Zm-17.3,11.16c-1.68,1.77-2.51,4.33-2.51,7.68s.83,5.89,2.51,7.64A8.2,8.2,0,0,0,248,48.45a8.1,8.1,0,0,0,6.14-2.62c1.65-1.75,2.47-4.29,2.47-7.64s-.82-5.91-2.47-7.68A8.06,8.06,0,0,0,248,27.85,8.16,8.16,0,0,0,241.85,30.51Z"/><path class="cls-1" d="M74.09,5.53l-12.66,53H45.55L37.08,23.06,28.54,58.49H12.66L0,5.53H13.93l6.82,38.35L30,5.53h14l9.29,38.35L60.23,5.53Z"/><path class="cls-1" d="M120.16,39.91h-29c.15,3.15.94,5.41,2.39,6.78a7.72,7.72,0,0,0,5.55,2.06,7.59,7.59,0,0,0,4.72-1.42,6.69,6.69,0,0,0,2.47-3.67h13.56a17.72,17.72,0,0,1-3.6,7.9,19.14,19.14,0,0,1-7,5.47,24.09,24.09,0,0,1-20.41-.6A18.45,18.45,0,0,1,81.35,49a23.25,23.25,0,0,1-2.69-11.39,23.25,23.25,0,0,1,2.66-11.42,18.12,18.12,0,0,1,7.45-7.42,24.63,24.63,0,0,1,21.87,0A18.06,18.06,0,0,1,118,25.87a21.31,21.31,0,0,1,2.58,10.6A17.64,17.64,0,0,1,120.16,39.91Zm-14.8-11.57a8.14,8.14,0,0,0-5.65-2.06,8.4,8.4,0,0,0-5.85,2.1,8.74,8.74,0,0,0-2.62,6.14h16.33Q107.65,30.39,105.36,28.34Z"/><path class="cls-1" d="M166.53,39.91h-29c.15,3.15.94,5.41,2.39,6.78a7.72,7.72,0,0,0,5.55,2.06,7.59,7.59,0,0,0,4.72-1.42,6.69,6.69,0,0,0,2.47-3.67h13.56a17.72,17.72,0,0,1-3.6,7.9,19.14,19.14,0,0,1-7,5.47,24.09,24.09,0,0,1-20.41-.6A18.45,18.45,0,0,1,127.72,49,23.14,23.14,0,0,1,125,37.59a23.36,23.36,0,0,1,2.65-11.42,18.2,18.2,0,0,1,7.46-7.42,24.63,24.63,0,0,1,21.87,0,18.06,18.06,0,0,1,7.31,7.16,21.31,21.31,0,0,1,2.58,10.6A18.45,18.45,0,0,1,166.53,39.91Zm-14.8-11.57a8.14,8.14,0,0,0-5.65-2.06,8.4,8.4,0,0,0-5.85,2.1,8.74,8.74,0,0,0-2.62,6.14h16.33Q154,30.39,151.73,28.34Z"/><path class="cls-1" d="M217.88,45.72a23.41,23.41,0,0,1-9.59,9.4,30.56,30.56,0,0,1-14.72,3.37h-20v-53h20a31.22,31.22,0,0,1,14.76,3.29,23.12,23.12,0,0,1,9.55,9.29,27.92,27.92,0,0,1,3.33,13.79A28.12,28.12,0,0,1,217.88,45.72Zm-13.79-2.66q4.16-4,4.16-11.16t-4.16-11.16q-4.16-4-11.65-4h-6.06V47h6.06Q199.94,47,204.09,43.06Z"/><path class="cls-1" d="M274.17,37.59A22.45,22.45,0,0,1,277,26.2a18.91,18.91,0,0,1,7.75-7.45,25.36,25.36,0,0,1,22.29,0,18.93,18.93,0,0,1,7.71,7.45,22.35,22.35,0,0,1,2.81,11.39m-13,0q0-5-2.47-7.68a8.07,8.07,0,0,0-6.15-2.66,8.19,8.19,0,0,0-6.18,2.66q-2.5,2.65-2.5,7.68"/><circle class="cls-2" cx="295.86" cy="6.38" r="6.38"/><circle class="cls-2" cx="247.99" cy="6.38" r="6.38"/></svg>