<svg width="140" height="25" viewBox="0 0 140 25" fill="none" xmlns="http://www.w3.org/2000/svg">
<path d="M14.17 24V22.544H2.938L13.91 6.788V5.28H1.248V6.918H11.934L0.988 22.726V24H14.17ZM22.4896 2.576C23.2176 2.576 23.7116 2.082 23.7116 1.38C23.7116 0.651998 23.2176 0.157999 22.4896 0.157999C21.7616 0.157999 21.2936 0.651998 21.2936 1.38C21.2936 2.082 21.7616 2.576 22.4896 2.576ZM26.8836 2.576C27.6116 2.576 28.1316 2.082 28.1316 1.38C28.1316 0.651998 27.6116 0.157999 26.8836 0.157999C26.1556 0.157999 25.6876 0.651998 25.6876 1.38C25.6876 2.082 26.1556 2.576 26.8836 2.576ZM17.8616 15.472C17.8616 21.192 20.0196 24.26 24.6476 24.26C29.2236 24.26 31.5636 21.192 31.5636 15.472V5.28H30.0036V15.42C30.0036 20.256 28.3396 22.778 24.6476 22.778C21.0856 22.778 19.3956 20.256 19.3956 15.446V5.28H17.8616V15.472ZM37.0346 24H38.5686V16.07L46.2126 24H48.3966L40.3626 15.992C42.1306 15.94 43.7946 15.836 45.2506 14.77C46.5766 13.808 47.2266 12.3 47.2266 10.532C47.2266 7.178 44.5746 5.28 40.5966 5.28H37.0346V24ZM40.7786 6.918C43.7686 6.918 45.6406 8.374 45.6406 10.636C45.6406 13.262 43.8466 14.692 40.6486 14.692H38.5686V6.918H40.7786ZM51.9896 24H53.5236V5.28H51.9896V24ZM59.1498 24H63.5698C69.0038 24 70.4598 21.504 70.4598 18.722C70.4598 16.33 69.1078 14.692 66.6378 14.016C68.7958 13.444 69.6018 11.806 69.6018 9.83C69.6018 6.944 67.7818 5.28 63.1278 5.28H59.1498V24ZM63.1538 6.918C66.8198 6.918 68.0158 8.14 68.0158 10.064C68.0158 12.222 66.9238 13.6 62.9718 13.6H60.6838V6.918H63.1538ZM63.2838 14.952C66.8198 14.952 68.8738 16.2 68.8738 18.878C68.8738 21.062 67.5998 22.622 63.5178 22.622H60.6838V14.952H63.2838ZM74.6604 15.472C74.6604 21.192 76.8184 24.26 81.4464 24.26C86.0224 24.26 88.3624 21.192 88.3624 15.472V5.28H86.8024V15.42C86.8024 20.256 85.1384 22.778 81.4464 22.778C77.8844 22.778 76.1944 20.256 76.1944 15.446V5.28H74.6604V15.472ZM93.8334 24H104.181V22.544H95.3674V15.056H103.427V13.6H95.3674V6.918H104.181V5.28H93.8334V24ZM120.68 22.024C119.588 22.466 118.106 22.778 116.702 22.778C111.866 22.778 108.72 19.528 108.72 14.718C108.72 10.064 111.788 6.736 116.338 6.736C118.106 6.736 119.458 7.048 120.524 7.568L120.706 5.904C119.64 5.28 117.924 5.02 116.286 5.02C110.956 5.02 107.16 8.972 107.16 14.64C107.16 20.516 110.904 24.26 116.624 24.26C118.106 24.26 119.718 23.974 120.836 23.454L120.68 22.024ZM124.912 24H126.446V15.056H137.73V24H139.264V5.28H137.73V13.6H126.446V5.28H124.912V24Z" fill="#fff"/>
</svg>
